M48
METRIC,LZ,000.000
;FILE_FORMAT=3:3
;TYPE=PLATED
;Layer: PTH_Through
;EasyEDA v6.5.23, 2023-05-10 17:44:45
;879318d257fd408eaa7c897814ac9686,36dc43ecd37a4a90800178a54734e8d5,10
;Gerber Generator version 0.2
;Holesize 1 = 0.915 mm
T01C0.915
;Holesize 2 = 0.951 mm
T02C0.951
;Holesize 3 = 1.000 mm
T03C1.000
;Holesize 4 = 1.016 mm
T04C1.016
;Holesize 5 = 1.101 mm
T05C1.101
%
G05
G90
T01
X016510Y-063543
X016510Y-053043
T02
X044450Y-014351
X044450Y-011811
X044450Y-009271
X044450Y-006731
T03
X001778Y-088011
X004318Y-088011
X006858Y-088011
X009398Y-088011
X011938Y-088011
X014478Y-088011
X017018Y-088011
X019558Y-088011
X045593Y-038243
X045593Y-040243
X045466Y-045482
X045466Y-047482
X046990Y-030607
X046990Y-033147
X046863Y-026035
X046863Y-023495
T04
X048260Y-082804
X045720Y-082804
X043180Y-082804
X040640Y-082804
X038100Y-082804
X035560Y-082804
X033020Y-082804
X030480Y-082804
X027940Y-082804
X025400Y-082804
X022860Y-082804
X020320Y-082804
X017780Y-082804
X015240Y-082804
X012700Y-082804
X010160Y-082804
X038100Y-067564
X035560Y-067564
X033020Y-067564
X030480Y-067564
X027940Y-067564
X025400Y-067564
X022860Y-067564
X020320Y-067564
X037694Y-060046
X037694Y-057506
X037694Y-054966
X037694Y-052426
X037694Y-049886
X037694Y-047346
X037694Y-044806
X037694Y-042266
X037694Y-039726
X037694Y-037186
X037694Y-034646
X037694Y-032106
X037694Y-029566
X037694Y-027026
X037694Y-024486
X037694Y-021946
X037694Y-019406
X037694Y-016866
X037694Y-014326
X037694Y-011786
X022454Y-060046
X022454Y-057506
X022454Y-054966
X022454Y-052426
X022454Y-049886
X022454Y-047346
X022454Y-044806
X022454Y-042266
X022454Y-039726
X022454Y-037186
X022454Y-034646
X022454Y-032106
X022454Y-029566
X022454Y-027026
X022454Y-024486
X022454Y-021946
X022454Y-019406
X022454Y-016866
X022454Y-014326
X022454Y-011786
T05
X016510Y-004572
X016510Y-007112
X016510Y-009652
X016383Y-013589
X016383Y-016129
X016383Y-018669
M30
