G04 Layer: BottomSolderMaskLayer*
G04 EasyEDA v6.5.23, 2023-05-10 17:44:45*
G04 879318d257fd408eaa7c897814ac9686,36dc43ecd37a4a90800178a54734e8d5,10*
G04 Gerber Generator version 0.2*
G04 Scale: 100 percent, Rotated: No, Reflected: No *
G04 Dimensions in millimeters *
G04 leading zeros omitted , absolute positions ,4 integer and 5 decimal *
%FSLAX45Y45*%
%MOMM*%

%AMMACRO1*1,1,$1,$2,$3*1,1,$1,$4,$5*1,1,$1,0-$2,0-$3*1,1,$1,0-$4,0-$5*20,1,$1,$2,$3,$4,$5,0*20,1,$1,$4,$5,0-$2,0-$3,0*20,1,$1,0-$2,0-$3,0-$4,0-$5,0*20,1,$1,0-$4,0-$5,$2,$3,0*4,1,4,$2,$3,$4,$5,0-$2,0-$3,0-$4,0-$5,$2,$3,0*%
%ADD10MACRO1,0.1016X-0.85X0.85X0.85X0.85*%
%ADD11C,1.8016*%
%ADD12C,1.9016*%
%ADD13MACRO1,0.1016X-0.9X-0.9X-0.9X0.9*%
%ADD14C,1.9812*%
%ADD15R,1.9812X1.9812*%
%ADD16C,1.7016*%
%ADD17C,2.2352*%
%ADD18MACRO1,0.1016X-0.75X0.75X0.75X0.75*%
%ADD19C,1.6016*%
%ADD20MACRO1,0.2032X-0.8X-0.8X-0.8X0.8*%
%ADD21C,1.8032*%
%ADD22C,2.1016*%

%LPD*%
D10*
G01*
X4445000Y-1435100D03*
D11*
G01*
X4445000Y-1181100D03*
G01*
X4445000Y-927100D03*
G01*
X4445000Y-673100D03*
D12*
G01*
X1651000Y-457200D03*
G01*
X1651000Y-711200D03*
D13*
G01*
X1651000Y-965200D03*
D12*
G01*
X1638300Y-1358900D03*
G01*
X1638300Y-1612900D03*
D13*
G01*
X1638300Y-1866900D03*
D14*
G01*
X4826000Y-8280400D03*
G01*
X4572000Y-8280400D03*
G01*
X4318000Y-8280400D03*
G01*
X4064000Y-8280400D03*
G01*
X3810000Y-8280400D03*
G01*
X3556000Y-8280400D03*
G01*
X3302000Y-8280400D03*
G01*
X3048000Y-8280400D03*
G01*
X2794000Y-8280400D03*
G01*
X2540000Y-8280400D03*
G01*
X2286000Y-8280400D03*
G01*
X2032000Y-8280400D03*
G01*
X1778000Y-8280400D03*
G01*
X1524000Y-8280400D03*
G01*
X1270000Y-8280400D03*
G01*
X1016000Y-8280400D03*
D15*
G01*
X3810000Y-6756400D03*
D14*
G01*
X3556000Y-6756400D03*
G01*
X3302000Y-6756400D03*
G01*
X3048000Y-6756400D03*
G01*
X2794000Y-6756400D03*
G01*
X2540000Y-6756400D03*
G01*
X2286000Y-6756400D03*
G01*
X2032000Y-6756400D03*
D16*
G01*
X1651000Y-6354305D03*
G01*
X1651000Y-5304294D03*
D17*
G01*
X3769359Y-6004560D03*
G01*
X3769359Y-5750560D03*
G01*
X3769359Y-5496560D03*
G01*
X3769359Y-5242560D03*
G01*
X3769359Y-4988560D03*
G01*
X3769359Y-4734560D03*
G01*
X3769359Y-4480560D03*
G01*
X3769359Y-4226560D03*
G01*
X3769359Y-3972560D03*
G01*
X3769359Y-3718560D03*
G01*
X3769359Y-3464560D03*
G01*
X3769359Y-3210560D03*
G01*
X3769359Y-2956560D03*
G01*
X3769359Y-2702560D03*
G01*
X3769359Y-2448560D03*
G01*
X3769359Y-2194560D03*
G01*
X3769359Y-1940560D03*
G01*
X3769359Y-1686560D03*
G01*
X3769359Y-1432560D03*
G01*
X3769359Y-1178560D03*
G01*
X2245359Y-6004560D03*
G01*
X2245359Y-5750560D03*
G01*
X2245359Y-5496560D03*
G01*
X2245359Y-5242560D03*
G01*
X2245359Y-4988560D03*
G01*
X2245359Y-4734560D03*
G01*
X2245359Y-4480560D03*
G01*
X2245359Y-4226560D03*
G01*
X2245359Y-3972560D03*
G01*
X2245359Y-3718560D03*
G01*
X2245359Y-3464560D03*
G01*
X2245359Y-3210560D03*
G01*
X2245359Y-2956560D03*
G01*
X2245359Y-2702560D03*
G01*
X2245359Y-2448560D03*
G01*
X2245359Y-2194560D03*
G01*
X2245359Y-1940560D03*
G01*
X2245359Y-1686560D03*
G01*
X2245359Y-1432560D03*
G01*
X2245359Y-1178560D03*
D18*
G01*
X177801Y-8801100D03*
D19*
G01*
X431800Y-8801100D03*
G01*
X685800Y-8801100D03*
G01*
X939800Y-8801100D03*
G01*
X1193800Y-8801100D03*
G01*
X1447800Y-8801100D03*
G01*
X1701800Y-8801100D03*
G01*
X1955800Y-8801100D03*
D20*
G01*
X4559300Y-3824300D03*
D21*
G01*
X4559300Y-4024299D03*
D20*
G01*
X4546600Y-4548200D03*
D21*
G01*
X4546600Y-4748199D03*
D22*
G01*
X4699000Y-3060700D03*
G01*
X4699000Y-3314700D03*
G01*
X4686300Y-2603500D03*
G01*
X4686300Y-2349500D03*
M02*
