G04 Layer: TopSilkscreenLayer*
G04 EasyEDA v6.5.23, 2023-05-10 17:44:45*
G04 879318d257fd408eaa7c897814ac9686,36dc43ecd37a4a90800178a54734e8d5,10*
G04 Gerber Generator version 0.2*
G04 Scale: 100 percent, Rotated: No, Reflected: No *
G04 Dimensions in millimeters *
G04 leading zeros omitted , absolute positions ,4 integer and 5 decimal *
%FSLAX45Y45*%
%MOMM*%

%ADD10C,0.1524*%
%ADD11C,0.2032*%
%ADD12C,0.2000*%
%ADD13C,0.2540*%
%ADD14C,0.2032*%
%ADD15C,0.0127*%

%LPD*%
D10*
X6223000Y-303784D02*
G01*
X6223000Y-412750D01*
X6223000Y-303784D02*
G01*
X6259322Y-303784D01*
X6275070Y-308863D01*
X6285229Y-319278D01*
X6290563Y-329692D01*
X6295643Y-345439D01*
X6295643Y-371347D01*
X6290563Y-386842D01*
X6285229Y-397255D01*
X6275070Y-407670D01*
X6259322Y-412750D01*
X6223000Y-412750D01*
X6329934Y-303784D02*
G01*
X6329934Y-412750D01*
X6329934Y-303784D02*
G01*
X6376670Y-303784D01*
X6392418Y-308863D01*
X6397497Y-314197D01*
X6402831Y-324612D01*
X6402831Y-340105D01*
X6397497Y-350520D01*
X6392418Y-355600D01*
X6376670Y-360934D01*
X6329934Y-360934D01*
X6437122Y-324612D02*
G01*
X6447536Y-319278D01*
X6463029Y-303784D01*
X6463029Y-412750D01*
D11*
X4612386Y-611378D02*
G01*
X4612386Y-756665D01*
X4612386Y-611378D02*
G01*
X4660900Y-611378D01*
X4681727Y-618236D01*
X4695697Y-632205D01*
X4702556Y-645921D01*
X4709413Y-666750D01*
X4709413Y-701294D01*
X4702556Y-722121D01*
X4695697Y-736092D01*
X4681727Y-749807D01*
X4660900Y-756665D01*
X4612386Y-756665D01*
X4716525Y-899921D02*
G01*
X4709413Y-886205D01*
X4695697Y-872236D01*
X4681727Y-865378D01*
X4654041Y-865378D01*
X4640325Y-872236D01*
X4626356Y-886205D01*
X4619497Y-899921D01*
X4612386Y-920750D01*
X4612386Y-955294D01*
X4619497Y-976121D01*
X4626356Y-990092D01*
X4640325Y-1003807D01*
X4654041Y-1010665D01*
X4681727Y-1010665D01*
X4695697Y-1003807D01*
X4709413Y-990092D01*
X4716525Y-976121D01*
X4674870Y-1140205D02*
G01*
X4674870Y-1264665D01*
X4612386Y-1202436D02*
G01*
X4737100Y-1202436D01*
X4612386Y-1456436D02*
G01*
X4737100Y-1456436D01*
D10*
X494284Y-723900D02*
G01*
X603250Y-723900D01*
X494284Y-651255D02*
G01*
X603250Y-651255D01*
X546100Y-723900D02*
G01*
X546100Y-651255D01*
X515112Y-616965D02*
G01*
X509778Y-606552D01*
X494284Y-590804D01*
X603250Y-590804D01*
X481584Y-1625600D02*
G01*
X590550Y-1625600D01*
X481584Y-1552955D02*
G01*
X590550Y-1552955D01*
X533400Y-1625600D02*
G01*
X533400Y-1552955D01*
X507492Y-1513331D02*
G01*
X502412Y-1513331D01*
X491997Y-1508252D01*
X486663Y-1502918D01*
X481584Y-1492504D01*
X481584Y-1471929D01*
X486663Y-1461515D01*
X491997Y-1456181D01*
X502412Y-1451102D01*
X512826Y-1451102D01*
X523239Y-1456181D01*
X538734Y-1466595D01*
X590550Y-1518665D01*
X590550Y-1445768D01*
X748284Y-7518400D02*
G01*
X857250Y-7518400D01*
X748284Y-7518400D02*
G01*
X748284Y-7471663D01*
X753363Y-7456170D01*
X758697Y-7450836D01*
X769112Y-7445755D01*
X784605Y-7445755D01*
X795020Y-7450836D01*
X800100Y-7456170D01*
X805434Y-7471663D01*
X805434Y-7518400D01*
X769112Y-7411465D02*
G01*
X763778Y-7401052D01*
X748284Y-7385304D01*
X857250Y-7385304D01*
X1042670Y-8101329D02*
G01*
X1035557Y-8104886D01*
X1028700Y-8111744D01*
X1025144Y-8118855D01*
X1025144Y-8132571D01*
X1028700Y-8139429D01*
X1035557Y-8146542D01*
X1042670Y-8149844D01*
X1052829Y-8153400D01*
X1070355Y-8153400D01*
X1080770Y-8149844D01*
X1087628Y-8146542D01*
X1094486Y-8139429D01*
X1098042Y-8132571D01*
X1098042Y-8118855D01*
X1094486Y-8111744D01*
X1087628Y-8104886D01*
X1080770Y-8101329D01*
X1039113Y-8078470D02*
G01*
X1035557Y-8071612D01*
X1025144Y-8061197D01*
X1098042Y-8061197D01*
X1025144Y-7996936D02*
G01*
X1025144Y-8031479D01*
X1056386Y-8035036D01*
X1052829Y-8031479D01*
X1049528Y-8021065D01*
X1049528Y-8010652D01*
X1052829Y-8000237D01*
X1059942Y-7993379D01*
X1070355Y-7989823D01*
X1077213Y-7989823D01*
X1087628Y-7993379D01*
X1094486Y-8000237D01*
X1098042Y-8010652D01*
X1098042Y-8021065D01*
X1094486Y-8031479D01*
X1090929Y-8035036D01*
X1084071Y-8038337D01*
X1296670Y-8101329D02*
G01*
X1289557Y-8104886D01*
X1282700Y-8111744D01*
X1279144Y-8118855D01*
X1279144Y-8132571D01*
X1282700Y-8139429D01*
X1289557Y-8146542D01*
X1296670Y-8149844D01*
X1306829Y-8153400D01*
X1324355Y-8153400D01*
X1334770Y-8149844D01*
X1341628Y-8146542D01*
X1348486Y-8139429D01*
X1352042Y-8132571D01*
X1352042Y-8118855D01*
X1348486Y-8111744D01*
X1341628Y-8104886D01*
X1334770Y-8101329D01*
X1293113Y-8078470D02*
G01*
X1289557Y-8071612D01*
X1279144Y-8061197D01*
X1352042Y-8061197D01*
X1279144Y-8003794D02*
G01*
X1327657Y-8038337D01*
X1327657Y-7986521D01*
X1279144Y-8003794D02*
G01*
X1352042Y-8003794D01*
X1550670Y-8101329D02*
G01*
X1543557Y-8104886D01*
X1536700Y-8111744D01*
X1533144Y-8118855D01*
X1533144Y-8132571D01*
X1536700Y-8139429D01*
X1543557Y-8146542D01*
X1550670Y-8149844D01*
X1560829Y-8153400D01*
X1578355Y-8153400D01*
X1588770Y-8149844D01*
X1595628Y-8146542D01*
X1602486Y-8139429D01*
X1606042Y-8132571D01*
X1606042Y-8118855D01*
X1602486Y-8111744D01*
X1595628Y-8104886D01*
X1588770Y-8101329D01*
X1547113Y-8078470D02*
G01*
X1543557Y-8071612D01*
X1533144Y-8061197D01*
X1606042Y-8061197D01*
X1533144Y-8031479D02*
G01*
X1533144Y-7993379D01*
X1560829Y-8014208D01*
X1560829Y-8003794D01*
X1564386Y-7996936D01*
X1567942Y-7993379D01*
X1578355Y-7989823D01*
X1585213Y-7989823D01*
X1595628Y-7993379D01*
X1602486Y-8000237D01*
X1606042Y-8010652D01*
X1606042Y-8021065D01*
X1602486Y-8031479D01*
X1598929Y-8035036D01*
X1592071Y-8038337D01*
X1804670Y-8101329D02*
G01*
X1797557Y-8104886D01*
X1790700Y-8111744D01*
X1787144Y-8118855D01*
X1787144Y-8132571D01*
X1790700Y-8139429D01*
X1797557Y-8146542D01*
X1804670Y-8149844D01*
X1814829Y-8153400D01*
X1832355Y-8153400D01*
X1842770Y-8149844D01*
X1849628Y-8146542D01*
X1856486Y-8139429D01*
X1860042Y-8132571D01*
X1860042Y-8118855D01*
X1856486Y-8111744D01*
X1849628Y-8104886D01*
X1842770Y-8101329D01*
X1801113Y-8078470D02*
G01*
X1797557Y-8071612D01*
X1787144Y-8061197D01*
X1860042Y-8061197D01*
X1804670Y-8035036D02*
G01*
X1801113Y-8035036D01*
X1794255Y-8031479D01*
X1790700Y-8027923D01*
X1787144Y-8021065D01*
X1787144Y-8007350D01*
X1790700Y-8000237D01*
X1794255Y-7996936D01*
X1801113Y-7993379D01*
X1807971Y-7993379D01*
X1814829Y-7996936D01*
X1825244Y-8003794D01*
X1860042Y-8038337D01*
X1860042Y-7989823D01*
X2058670Y-8101329D02*
G01*
X2051558Y-8104886D01*
X2044700Y-8111744D01*
X2041143Y-8118855D01*
X2041143Y-8132571D01*
X2044700Y-8139429D01*
X2051558Y-8146542D01*
X2058670Y-8149844D01*
X2068829Y-8153400D01*
X2086356Y-8153400D01*
X2096770Y-8149844D01*
X2103627Y-8146542D01*
X2110486Y-8139429D01*
X2114041Y-8132571D01*
X2114041Y-8118855D01*
X2110486Y-8111744D01*
X2103627Y-8104886D01*
X2096770Y-8101329D01*
X2055113Y-8078470D02*
G01*
X2051558Y-8071612D01*
X2041143Y-8061197D01*
X2114041Y-8061197D01*
X2055113Y-8038337D02*
G01*
X2051558Y-8031479D01*
X2041143Y-8021065D01*
X2114041Y-8021065D01*
X2312670Y-8101329D02*
G01*
X2305558Y-8104886D01*
X2298700Y-8111744D01*
X2295143Y-8118855D01*
X2295143Y-8132571D01*
X2298700Y-8139429D01*
X2305558Y-8146542D01*
X2312670Y-8149844D01*
X2322829Y-8153400D01*
X2340356Y-8153400D01*
X2350770Y-8149844D01*
X2357627Y-8146542D01*
X2364486Y-8139429D01*
X2368041Y-8132571D01*
X2368041Y-8118855D01*
X2364486Y-8111744D01*
X2357627Y-8104886D01*
X2350770Y-8101329D01*
X2309113Y-8078470D02*
G01*
X2305558Y-8071612D01*
X2295143Y-8061197D01*
X2368041Y-8061197D01*
X2295143Y-8017510D02*
G01*
X2298700Y-8027923D01*
X2309113Y-8035036D01*
X2326386Y-8038337D01*
X2336800Y-8038337D01*
X2354072Y-8035036D01*
X2364486Y-8027923D01*
X2368041Y-8017510D01*
X2368041Y-8010652D01*
X2364486Y-8000237D01*
X2354072Y-7993379D01*
X2336800Y-7989823D01*
X2326386Y-7989823D01*
X2309113Y-7993379D01*
X2298700Y-8000237D01*
X2295143Y-8010652D01*
X2295143Y-8017510D01*
X2566670Y-8101329D02*
G01*
X2559558Y-8104886D01*
X2552700Y-8111744D01*
X2549143Y-8118855D01*
X2549143Y-8132571D01*
X2552700Y-8139429D01*
X2559558Y-8146542D01*
X2566670Y-8149844D01*
X2576829Y-8153400D01*
X2594356Y-8153400D01*
X2604770Y-8149844D01*
X2611627Y-8146542D01*
X2618486Y-8139429D01*
X2622041Y-8132571D01*
X2622041Y-8118855D01*
X2618486Y-8111744D01*
X2611627Y-8104886D01*
X2604770Y-8101329D01*
X2573527Y-8033512D02*
G01*
X2583941Y-8037068D01*
X2590800Y-8043926D01*
X2594356Y-8054339D01*
X2594356Y-8057895D01*
X2590800Y-8068310D01*
X2583941Y-8075168D01*
X2573527Y-8078470D01*
X2569972Y-8078470D01*
X2559558Y-8075168D01*
X2552700Y-8068310D01*
X2549143Y-8057895D01*
X2549143Y-8054339D01*
X2552700Y-8043926D01*
X2559558Y-8037068D01*
X2573527Y-8033512D01*
X2590800Y-8033512D01*
X2608072Y-8037068D01*
X2618486Y-8043926D01*
X2622041Y-8054339D01*
X2622041Y-8061197D01*
X2618486Y-8071612D01*
X2611627Y-8075168D01*
X2820670Y-8101329D02*
G01*
X2813558Y-8104886D01*
X2806700Y-8111744D01*
X2803143Y-8118855D01*
X2803143Y-8132571D01*
X2806700Y-8139429D01*
X2813558Y-8146542D01*
X2820670Y-8149844D01*
X2830829Y-8153400D01*
X2848356Y-8153400D01*
X2858770Y-8149844D01*
X2865627Y-8146542D01*
X2872486Y-8139429D01*
X2876041Y-8132571D01*
X2876041Y-8118855D01*
X2872486Y-8111744D01*
X2865627Y-8104886D01*
X2858770Y-8101329D01*
X2803143Y-8061197D02*
G01*
X2806700Y-8071612D01*
X2813558Y-8075168D01*
X2820670Y-8075168D01*
X2827527Y-8071612D01*
X2830829Y-8064754D01*
X2834386Y-8050784D01*
X2837941Y-8040370D01*
X2844800Y-8033512D01*
X2851658Y-8030210D01*
X2862072Y-8030210D01*
X2868929Y-8033512D01*
X2872486Y-8037068D01*
X2876041Y-8047481D01*
X2876041Y-8061197D01*
X2872486Y-8071612D01*
X2868929Y-8075168D01*
X2862072Y-8078470D01*
X2851658Y-8078470D01*
X2844800Y-8075168D01*
X2837941Y-8068310D01*
X2834386Y-8057895D01*
X2830829Y-8043926D01*
X2827527Y-8037068D01*
X2820670Y-8033512D01*
X2813558Y-8033512D01*
X2806700Y-8037068D01*
X2803143Y-8047481D01*
X2803143Y-8061197D01*
X3074670Y-8101329D02*
G01*
X3067558Y-8104886D01*
X3060700Y-8111744D01*
X3057143Y-8118855D01*
X3057143Y-8132571D01*
X3060700Y-8139429D01*
X3067558Y-8146542D01*
X3074670Y-8149844D01*
X3084829Y-8153400D01*
X3102356Y-8153400D01*
X3112770Y-8149844D01*
X3119627Y-8146542D01*
X3126486Y-8139429D01*
X3130041Y-8132571D01*
X3130041Y-8118855D01*
X3126486Y-8111744D01*
X3119627Y-8104886D01*
X3112770Y-8101329D01*
X3057143Y-8030210D02*
G01*
X3130041Y-8064754D01*
X3057143Y-8078470D02*
G01*
X3057143Y-8030210D01*
X3328670Y-8101329D02*
G01*
X3321558Y-8104886D01*
X3314700Y-8111744D01*
X3311143Y-8118855D01*
X3311143Y-8132571D01*
X3314700Y-8139429D01*
X3321558Y-8146542D01*
X3328670Y-8149844D01*
X3338829Y-8153400D01*
X3356356Y-8153400D01*
X3366770Y-8149844D01*
X3373627Y-8146542D01*
X3380486Y-8139429D01*
X3384041Y-8132571D01*
X3384041Y-8118855D01*
X3380486Y-8111744D01*
X3373627Y-8104886D01*
X3366770Y-8101329D01*
X3321558Y-8037068D02*
G01*
X3314700Y-8040370D01*
X3311143Y-8050784D01*
X3311143Y-8057895D01*
X3314700Y-8068310D01*
X3325113Y-8075168D01*
X3342386Y-8078470D01*
X3359658Y-8078470D01*
X3373627Y-8075168D01*
X3380486Y-8068310D01*
X3384041Y-8057895D01*
X3384041Y-8054339D01*
X3380486Y-8043926D01*
X3373627Y-8037068D01*
X3363213Y-8033512D01*
X3359658Y-8033512D01*
X3349243Y-8037068D01*
X3342386Y-8043926D01*
X3338829Y-8054339D01*
X3338829Y-8057895D01*
X3342386Y-8068310D01*
X3349243Y-8075168D01*
X3359658Y-8078470D01*
X3582670Y-8101329D02*
G01*
X3575558Y-8104886D01*
X3568700Y-8111744D01*
X3565143Y-8118855D01*
X3565143Y-8132571D01*
X3568700Y-8139429D01*
X3575558Y-8146542D01*
X3582670Y-8149844D01*
X3592829Y-8153400D01*
X3610356Y-8153400D01*
X3620770Y-8149844D01*
X3627627Y-8146542D01*
X3634486Y-8139429D01*
X3638041Y-8132571D01*
X3638041Y-8118855D01*
X3634486Y-8111744D01*
X3627627Y-8104886D01*
X3620770Y-8101329D01*
X3565143Y-8037068D02*
G01*
X3565143Y-8071612D01*
X3596386Y-8075168D01*
X3592829Y-8071612D01*
X3589527Y-8061197D01*
X3589527Y-8050784D01*
X3592829Y-8040370D01*
X3599941Y-8033512D01*
X3610356Y-8030210D01*
X3617213Y-8030210D01*
X3627627Y-8033512D01*
X3634486Y-8040370D01*
X3638041Y-8050784D01*
X3638041Y-8061197D01*
X3634486Y-8071612D01*
X3630929Y-8075168D01*
X3624072Y-8078470D01*
X3836670Y-8101329D02*
G01*
X3829558Y-8104886D01*
X3822700Y-8111744D01*
X3819143Y-8118855D01*
X3819143Y-8132571D01*
X3822700Y-8139429D01*
X3829558Y-8146542D01*
X3836670Y-8149844D01*
X3846829Y-8153400D01*
X3864356Y-8153400D01*
X3874770Y-8149844D01*
X3881627Y-8146542D01*
X3888486Y-8139429D01*
X3892041Y-8132571D01*
X3892041Y-8118855D01*
X3888486Y-8111744D01*
X3881627Y-8104886D01*
X3874770Y-8101329D01*
X3819143Y-8043926D02*
G01*
X3867658Y-8078470D01*
X3867658Y-8026654D01*
X3819143Y-8043926D02*
G01*
X3892041Y-8043926D01*
X4090670Y-8101329D02*
G01*
X4083558Y-8104886D01*
X4076700Y-8111744D01*
X4073143Y-8118855D01*
X4073143Y-8132571D01*
X4076700Y-8139429D01*
X4083558Y-8146542D01*
X4090670Y-8149844D01*
X4100829Y-8153400D01*
X4118356Y-8153400D01*
X4128770Y-8149844D01*
X4135627Y-8146542D01*
X4142486Y-8139429D01*
X4146041Y-8132571D01*
X4146041Y-8118855D01*
X4142486Y-8111744D01*
X4135627Y-8104886D01*
X4128770Y-8101329D01*
X4073143Y-8071612D02*
G01*
X4073143Y-8033512D01*
X4100829Y-8054339D01*
X4100829Y-8043926D01*
X4104386Y-8037068D01*
X4107941Y-8033512D01*
X4118356Y-8030210D01*
X4125213Y-8030210D01*
X4135627Y-8033512D01*
X4142486Y-8040370D01*
X4146041Y-8050784D01*
X4146041Y-8061197D01*
X4142486Y-8071612D01*
X4138929Y-8075168D01*
X4132072Y-8078470D01*
X4344670Y-8101329D02*
G01*
X4337558Y-8104886D01*
X4330700Y-8111744D01*
X4327143Y-8118855D01*
X4327143Y-8132571D01*
X4330700Y-8139429D01*
X4337558Y-8146542D01*
X4344670Y-8149844D01*
X4354829Y-8153400D01*
X4372356Y-8153400D01*
X4382770Y-8149844D01*
X4389627Y-8146542D01*
X4396486Y-8139429D01*
X4400041Y-8132571D01*
X4400041Y-8118855D01*
X4396486Y-8111744D01*
X4389627Y-8104886D01*
X4382770Y-8101329D01*
X4344670Y-8075168D02*
G01*
X4341113Y-8075168D01*
X4334256Y-8071612D01*
X4330700Y-8068310D01*
X4327143Y-8061197D01*
X4327143Y-8047481D01*
X4330700Y-8040370D01*
X4334256Y-8037068D01*
X4341113Y-8033512D01*
X4347972Y-8033512D01*
X4354829Y-8037068D01*
X4365243Y-8043926D01*
X4400041Y-8078470D01*
X4400041Y-8030210D01*
X4598670Y-8101329D02*
G01*
X4591558Y-8104886D01*
X4584700Y-8111744D01*
X4581143Y-8118855D01*
X4581143Y-8132571D01*
X4584700Y-8139429D01*
X4591558Y-8146542D01*
X4598670Y-8149844D01*
X4608829Y-8153400D01*
X4626356Y-8153400D01*
X4636770Y-8149844D01*
X4643627Y-8146542D01*
X4650486Y-8139429D01*
X4654041Y-8132571D01*
X4654041Y-8118855D01*
X4650486Y-8111744D01*
X4643627Y-8104886D01*
X4636770Y-8101329D01*
X4595113Y-8078470D02*
G01*
X4591558Y-8071612D01*
X4581143Y-8061197D01*
X4654041Y-8061197D01*
X4852670Y-8101329D02*
G01*
X4845558Y-8104886D01*
X4838700Y-8111744D01*
X4835143Y-8118855D01*
X4835143Y-8132571D01*
X4838700Y-8139429D01*
X4845558Y-8146542D01*
X4852670Y-8149844D01*
X4862829Y-8153400D01*
X4880356Y-8153400D01*
X4890770Y-8149844D01*
X4897627Y-8146542D01*
X4904486Y-8139429D01*
X4908041Y-8132571D01*
X4908041Y-8118855D01*
X4904486Y-8111744D01*
X4897627Y-8104886D01*
X4890770Y-8101329D01*
X4835143Y-8057895D02*
G01*
X4838700Y-8068310D01*
X4849113Y-8075168D01*
X4866386Y-8078470D01*
X4876800Y-8078470D01*
X4894072Y-8075168D01*
X4904486Y-8068310D01*
X4908041Y-8057895D01*
X4908041Y-8050784D01*
X4904486Y-8040370D01*
X4894072Y-8033512D01*
X4876800Y-8030210D01*
X4866386Y-8030210D01*
X4849113Y-8033512D01*
X4838700Y-8040370D01*
X4835143Y-8050784D01*
X4835143Y-8057895D01*
X2012441Y-6931913D02*
G01*
X2019300Y-6925055D01*
X2022856Y-6914642D01*
X2022856Y-6900671D01*
X2019300Y-6890258D01*
X2012441Y-6883400D01*
X2005329Y-6883400D01*
X1998472Y-6886955D01*
X1995170Y-6890258D01*
X1991613Y-6897370D01*
X1984756Y-6917944D01*
X1981200Y-6925055D01*
X1977643Y-6928358D01*
X1970786Y-6931913D01*
X1960372Y-6931913D01*
X1953513Y-6925055D01*
X1949958Y-6914642D01*
X1949958Y-6900671D01*
X1953513Y-6890258D01*
X1960372Y-6883400D01*
X2022856Y-6954773D02*
G01*
X1949958Y-6954773D01*
X2005329Y-7029450D02*
G01*
X2012441Y-7026147D01*
X2019300Y-7019289D01*
X2022856Y-7012178D01*
X2022856Y-6998462D01*
X2019300Y-6991350D01*
X2012441Y-6984492D01*
X2005329Y-6981189D01*
X1995170Y-6977634D01*
X1977643Y-6977634D01*
X1967229Y-6981189D01*
X1960372Y-6984492D01*
X1953513Y-6991350D01*
X1949958Y-6998462D01*
X1949958Y-7012178D01*
X1953513Y-7019289D01*
X1960372Y-7026147D01*
X1967229Y-7029450D01*
X1977643Y-7029450D01*
X1977643Y-7012178D02*
G01*
X1977643Y-7029450D01*
X2266441Y-6931913D02*
G01*
X2273300Y-6925055D01*
X2276856Y-6914642D01*
X2276856Y-6900671D01*
X2273300Y-6890258D01*
X2266441Y-6883400D01*
X2259329Y-6883400D01*
X2252472Y-6886955D01*
X2249170Y-6890258D01*
X2245613Y-6897370D01*
X2238756Y-6917944D01*
X2235200Y-6925055D01*
X2231643Y-6928358D01*
X2224786Y-6931913D01*
X2214372Y-6931913D01*
X2207513Y-6925055D01*
X2203958Y-6914642D01*
X2203958Y-6900671D01*
X2207513Y-6890258D01*
X2214372Y-6883400D01*
X2276856Y-6961631D02*
G01*
X2276856Y-6999731D01*
X2249170Y-6978904D01*
X2249170Y-6989318D01*
X2245613Y-6996429D01*
X2242058Y-6999731D01*
X2231643Y-7003287D01*
X2224786Y-7003287D01*
X2214372Y-6999731D01*
X2207513Y-6992873D01*
X2203958Y-6982460D01*
X2203958Y-6972045D01*
X2207513Y-6961631D01*
X2211070Y-6958329D01*
X2217927Y-6954773D01*
X2520441Y-6931913D02*
G01*
X2527300Y-6925055D01*
X2530856Y-6914642D01*
X2530856Y-6900671D01*
X2527300Y-6890258D01*
X2520441Y-6883400D01*
X2513329Y-6883400D01*
X2506472Y-6886955D01*
X2503170Y-6890258D01*
X2499613Y-6897370D01*
X2492756Y-6917944D01*
X2489200Y-6925055D01*
X2485643Y-6928358D01*
X2478786Y-6931913D01*
X2468372Y-6931913D01*
X2461513Y-6925055D01*
X2457958Y-6914642D01*
X2457958Y-6900671D01*
X2461513Y-6890258D01*
X2468372Y-6883400D01*
X2513329Y-6958329D02*
G01*
X2516886Y-6958329D01*
X2523743Y-6961631D01*
X2527300Y-6965187D01*
X2530856Y-6972045D01*
X2530856Y-6986015D01*
X2527300Y-6992873D01*
X2523743Y-6996429D01*
X2516886Y-6999731D01*
X2510027Y-6999731D01*
X2503170Y-6996429D01*
X2492756Y-6989318D01*
X2457958Y-6954773D01*
X2457958Y-7003287D01*
X2774441Y-6931913D02*
G01*
X2781300Y-6925055D01*
X2784856Y-6914642D01*
X2784856Y-6900671D01*
X2781300Y-6890258D01*
X2774441Y-6883400D01*
X2767329Y-6883400D01*
X2760472Y-6886955D01*
X2757170Y-6890258D01*
X2753613Y-6897370D01*
X2746756Y-6917944D01*
X2743200Y-6925055D01*
X2739643Y-6928358D01*
X2732786Y-6931913D01*
X2722372Y-6931913D01*
X2715513Y-6925055D01*
X2711958Y-6914642D01*
X2711958Y-6900671D01*
X2715513Y-6890258D01*
X2722372Y-6883400D01*
X2770886Y-6954773D02*
G01*
X2774441Y-6961631D01*
X2784856Y-6972045D01*
X2711958Y-6972045D01*
X3028441Y-6931913D02*
G01*
X3035300Y-6925055D01*
X3038856Y-6914642D01*
X3038856Y-6900671D01*
X3035300Y-6890258D01*
X3028441Y-6883400D01*
X3021329Y-6883400D01*
X3014472Y-6886955D01*
X3011170Y-6890258D01*
X3007613Y-6897370D01*
X3000756Y-6917944D01*
X2997200Y-6925055D01*
X2993643Y-6928358D01*
X2986786Y-6931913D01*
X2976372Y-6931913D01*
X2969513Y-6925055D01*
X2965958Y-6914642D01*
X2965958Y-6900671D01*
X2969513Y-6890258D01*
X2976372Y-6883400D01*
X3038856Y-6975602D02*
G01*
X3035300Y-6965187D01*
X3024886Y-6958329D01*
X3007613Y-6954773D01*
X2997200Y-6954773D01*
X2979927Y-6958329D01*
X2969513Y-6965187D01*
X2965958Y-6975602D01*
X2965958Y-6982460D01*
X2969513Y-6992873D01*
X2979927Y-6999731D01*
X2997200Y-7003287D01*
X3007613Y-7003287D01*
X3024886Y-6999731D01*
X3035300Y-6992873D01*
X3038856Y-6982460D01*
X3038856Y-6975602D01*
X3292856Y-6883400D02*
G01*
X3219958Y-6883400D01*
X3292856Y-6883400D02*
G01*
X3292856Y-6928358D01*
X3258058Y-6883400D02*
G01*
X3258058Y-6911086D01*
X3219958Y-6883400D02*
G01*
X3219958Y-6928358D01*
X3292856Y-6951218D02*
G01*
X3219958Y-6951218D01*
X3292856Y-6951218D02*
G01*
X3219958Y-6999731D01*
X3292856Y-6999731D02*
G01*
X3219958Y-6999731D01*
X3546856Y-6883400D02*
G01*
X3473958Y-6911086D01*
X3546856Y-6938771D02*
G01*
X3473958Y-6911086D01*
X3529329Y-7013702D02*
G01*
X3536441Y-7010145D01*
X3543300Y-7003287D01*
X3546856Y-6996429D01*
X3546856Y-6982460D01*
X3543300Y-6975602D01*
X3536441Y-6968489D01*
X3529329Y-6965187D01*
X3519170Y-6961631D01*
X3501643Y-6961631D01*
X3491229Y-6965187D01*
X3484372Y-6968489D01*
X3477513Y-6975602D01*
X3473958Y-6982460D01*
X3473958Y-6996429D01*
X3477513Y-7003287D01*
X3484372Y-7010145D01*
X3491229Y-7013702D01*
X3529329Y-7088378D02*
G01*
X3536441Y-7085076D01*
X3543300Y-7077963D01*
X3546856Y-7071105D01*
X3546856Y-7057389D01*
X3543300Y-7050278D01*
X3536441Y-7043420D01*
X3529329Y-7039863D01*
X3519170Y-7036562D01*
X3501643Y-7036562D01*
X3491229Y-7039863D01*
X3484372Y-7043420D01*
X3477513Y-7050278D01*
X3473958Y-7057389D01*
X3473958Y-7071105D01*
X3477513Y-7077963D01*
X3484372Y-7085076D01*
X3491229Y-7088378D01*
X3783329Y-6935470D02*
G01*
X3790441Y-6931913D01*
X3797300Y-6925055D01*
X3800856Y-6917944D01*
X3800856Y-6904228D01*
X3797300Y-6897370D01*
X3790441Y-6890258D01*
X3783329Y-6886955D01*
X3773170Y-6883400D01*
X3755643Y-6883400D01*
X3745229Y-6886955D01*
X3738372Y-6890258D01*
X3731513Y-6897370D01*
X3727958Y-6904228D01*
X3727958Y-6917944D01*
X3731513Y-6925055D01*
X3738372Y-6931913D01*
X3745229Y-6935470D01*
X3755643Y-6935470D01*
X3755643Y-6917944D02*
G01*
X3755643Y-6935470D01*
X3800856Y-6958329D02*
G01*
X3727958Y-6958329D01*
X3800856Y-6958329D02*
G01*
X3727958Y-7006589D01*
X3800856Y-7006589D02*
G01*
X3727958Y-7006589D01*
X3800856Y-7029450D02*
G01*
X3727958Y-7029450D01*
X3800856Y-7029450D02*
G01*
X3800856Y-7053834D01*
X3797300Y-7064247D01*
X3790441Y-7071105D01*
X3783329Y-7074662D01*
X3773170Y-7077963D01*
X3755643Y-7077963D01*
X3745229Y-7074662D01*
X3738372Y-7071105D01*
X3731513Y-7064247D01*
X3727958Y-7053834D01*
X3727958Y-7029450D01*
X1383284Y-5846305D02*
G01*
X1492250Y-5846305D01*
X1383284Y-5846305D02*
G01*
X1383284Y-5799569D01*
X1388363Y-5784075D01*
X1393697Y-5778741D01*
X1404112Y-5773661D01*
X1414526Y-5773661D01*
X1424939Y-5778741D01*
X1430020Y-5784075D01*
X1435100Y-5799569D01*
X1435100Y-5846305D01*
X1435100Y-5809983D02*
G01*
X1492250Y-5773661D01*
X1404112Y-5739371D02*
G01*
X1398778Y-5728957D01*
X1383284Y-5713209D01*
X1492250Y-5713209D01*
X3009900Y-760984D02*
G01*
X3009900Y-838962D01*
X3014979Y-854455D01*
X3025393Y-864870D01*
X3041141Y-869950D01*
X3051556Y-869950D01*
X3067050Y-864870D01*
X3077463Y-854455D01*
X3082543Y-838962D01*
X3082543Y-760984D01*
X3116834Y-781812D02*
G01*
X3127247Y-776478D01*
X3142995Y-760984D01*
X3142995Y-869950D01*
D12*
X1925320Y-1146047D02*
G01*
X1925320Y-1212850D01*
X1925320Y-1146047D02*
G01*
X1954022Y-1146047D01*
X1963420Y-1149095D01*
X1966722Y-1152397D01*
X1969770Y-1158747D01*
X1969770Y-1165097D01*
X1966722Y-1171447D01*
X1963420Y-1174750D01*
X1954022Y-1177797D01*
X1925320Y-1177797D02*
G01*
X1954022Y-1177797D01*
X1963420Y-1181100D01*
X1966722Y-1184147D01*
X1969770Y-1190497D01*
X1969770Y-1200150D01*
X1966722Y-1206500D01*
X1963420Y-1209547D01*
X1954022Y-1212850D01*
X1925320Y-1212850D01*
X2016252Y-1146047D02*
G01*
X1990852Y-1212850D01*
X2016252Y-1146047D02*
G01*
X2041652Y-1212850D01*
X2000504Y-1190497D02*
G01*
X2032254Y-1190497D01*
X2085086Y-1146047D02*
G01*
X2085086Y-1212850D01*
X2062734Y-1146047D02*
G01*
X2107438Y-1146047D01*
X1902460Y-1405128D02*
G01*
X1902460Y-1471929D01*
X1902460Y-1405128D02*
G01*
X1931161Y-1405128D01*
X1940559Y-1408176D01*
X1943861Y-1411478D01*
X1946909Y-1417828D01*
X1946909Y-1427479D01*
X1943861Y-1433829D01*
X1940559Y-1436878D01*
X1931161Y-1440179D01*
X1902460Y-1440179D01*
X2015743Y-1421129D02*
G01*
X2012441Y-1414526D01*
X2006091Y-1408176D01*
X1999741Y-1405128D01*
X1987041Y-1405128D01*
X1980691Y-1408176D01*
X1974341Y-1414526D01*
X1971293Y-1421129D01*
X1967991Y-1430528D01*
X1967991Y-1446529D01*
X1971293Y-1455928D01*
X1974341Y-1462278D01*
X1980691Y-1468628D01*
X1987041Y-1471929D01*
X1999741Y-1471929D01*
X2006091Y-1468628D01*
X2012441Y-1462278D01*
X2015743Y-1455928D01*
X2036825Y-1417828D02*
G01*
X2043175Y-1414526D01*
X2052574Y-1405128D01*
X2052574Y-1471929D01*
X2080006Y-1405128D02*
G01*
X2115058Y-1405128D01*
X2096008Y-1430528D01*
X2105406Y-1430528D01*
X2111756Y-1433829D01*
X2115058Y-1436878D01*
X2118106Y-1446529D01*
X2118106Y-1452879D01*
X2115058Y-1462278D01*
X2108708Y-1468628D01*
X2099056Y-1471929D01*
X2089658Y-1471929D01*
X2080006Y-1468628D01*
X2076704Y-1465579D01*
X2073656Y-1459229D01*
X1902460Y-1661668D02*
G01*
X1902460Y-1728470D01*
X1902460Y-1661668D02*
G01*
X1931161Y-1661668D01*
X1940559Y-1664715D01*
X1943861Y-1668018D01*
X1946909Y-1674368D01*
X1946909Y-1684020D01*
X1943861Y-1690370D01*
X1940559Y-1693418D01*
X1931161Y-1696720D01*
X1902460Y-1696720D01*
X2015743Y-1677670D02*
G01*
X2012441Y-1671065D01*
X2006091Y-1664715D01*
X1999741Y-1661668D01*
X1987041Y-1661668D01*
X1980691Y-1664715D01*
X1974341Y-1671065D01*
X1971293Y-1677670D01*
X1967991Y-1687068D01*
X1967991Y-1703070D01*
X1971293Y-1712468D01*
X1974341Y-1718818D01*
X1980691Y-1725168D01*
X1987041Y-1728470D01*
X1999741Y-1728470D01*
X2006091Y-1725168D01*
X2012441Y-1718818D01*
X2015743Y-1712468D01*
X2036825Y-1674368D02*
G01*
X2043175Y-1671065D01*
X2052574Y-1661668D01*
X2052574Y-1728470D01*
X2105406Y-1661668D02*
G01*
X2073656Y-1706118D01*
X2121408Y-1706118D01*
X2105406Y-1661668D02*
G01*
X2105406Y-1728470D01*
X1902460Y-1915668D02*
G01*
X1902460Y-1982470D01*
X1902460Y-1915668D02*
G01*
X1931161Y-1915668D01*
X1940559Y-1918715D01*
X1943861Y-1922018D01*
X1946909Y-1928368D01*
X1946909Y-1938020D01*
X1943861Y-1944370D01*
X1940559Y-1947418D01*
X1931161Y-1950720D01*
X1902460Y-1950720D01*
X2015743Y-1931670D02*
G01*
X2012441Y-1925065D01*
X2006091Y-1918715D01*
X1999741Y-1915668D01*
X1987041Y-1915668D01*
X1980691Y-1918715D01*
X1974341Y-1925065D01*
X1971293Y-1931670D01*
X1967991Y-1941068D01*
X1967991Y-1957070D01*
X1971293Y-1966468D01*
X1974341Y-1972818D01*
X1980691Y-1979168D01*
X1987041Y-1982470D01*
X1999741Y-1982470D01*
X2006091Y-1979168D01*
X2012441Y-1972818D01*
X2015743Y-1966468D01*
X2036825Y-1928368D02*
G01*
X2043175Y-1925065D01*
X2052574Y-1915668D01*
X2052574Y-1982470D01*
X2111756Y-1915668D02*
G01*
X2080006Y-1915668D01*
X2076704Y-1944370D01*
X2080006Y-1941068D01*
X2089658Y-1938020D01*
X2099056Y-1938020D01*
X2108708Y-1941068D01*
X2115058Y-1947418D01*
X2118106Y-1957070D01*
X2118106Y-1963420D01*
X2115058Y-1972818D01*
X2108708Y-1979168D01*
X2099056Y-1982470D01*
X2089658Y-1982470D01*
X2080006Y-1979168D01*
X2076704Y-1976120D01*
X2073656Y-1969770D01*
X1927860Y-2167128D02*
G01*
X1927860Y-2233929D01*
X1927860Y-2167128D02*
G01*
X1956561Y-2167128D01*
X1965959Y-2170176D01*
X1969261Y-2173478D01*
X1972309Y-2179828D01*
X1972309Y-2189479D01*
X1969261Y-2195829D01*
X1965959Y-2198878D01*
X1956561Y-2202179D01*
X1927860Y-2202179D01*
X2018791Y-2167128D02*
G01*
X1993391Y-2233929D01*
X2018791Y-2167128D02*
G01*
X2044191Y-2233929D01*
X2003043Y-2211578D02*
G01*
X2034793Y-2211578D01*
X2084324Y-2167128D02*
G01*
X2074925Y-2170176D01*
X2068575Y-2179828D01*
X2065274Y-2195829D01*
X2065274Y-2205228D01*
X2068575Y-2221229D01*
X2074925Y-2230628D01*
X2084324Y-2233929D01*
X2090674Y-2233929D01*
X2100325Y-2230628D01*
X2106675Y-2221229D01*
X2109977Y-2205228D01*
X2109977Y-2195829D01*
X2106675Y-2179828D01*
X2100325Y-2170176D01*
X2090674Y-2167128D01*
X2084324Y-2167128D01*
X1932940Y-2416047D02*
G01*
X1932940Y-2482850D01*
X1932940Y-2416047D02*
G01*
X1961641Y-2416047D01*
X1971040Y-2419095D01*
X1974341Y-2422397D01*
X1977390Y-2428747D01*
X1977390Y-2438400D01*
X1974341Y-2444750D01*
X1971040Y-2447797D01*
X1961641Y-2451100D01*
X1932940Y-2451100D01*
X2023872Y-2416047D02*
G01*
X1998472Y-2482850D01*
X2023872Y-2416047D02*
G01*
X2049272Y-2482850D01*
X2008124Y-2460497D02*
G01*
X2039874Y-2460497D01*
X2070354Y-2428747D02*
G01*
X2076704Y-2425445D01*
X2086356Y-2416047D01*
X2086356Y-2482850D01*
X1927860Y-2672587D02*
G01*
X1927860Y-2739389D01*
X1927860Y-2672587D02*
G01*
X1956561Y-2672587D01*
X1965959Y-2675636D01*
X1969261Y-2678937D01*
X1972309Y-2685287D01*
X1972309Y-2694939D01*
X1969261Y-2701289D01*
X1965959Y-2704337D01*
X1956561Y-2707639D01*
X1927860Y-2707639D01*
X2018791Y-2672587D02*
G01*
X1993391Y-2739389D01*
X2018791Y-2672587D02*
G01*
X2044191Y-2739389D01*
X2003043Y-2717037D02*
G01*
X2034793Y-2717037D01*
X2068575Y-2688589D02*
G01*
X2068575Y-2685287D01*
X2071624Y-2678937D01*
X2074925Y-2675636D01*
X2081275Y-2672587D01*
X2093975Y-2672587D01*
X2100325Y-2675636D01*
X2103627Y-2678937D01*
X2106675Y-2685287D01*
X2106675Y-2691637D01*
X2103627Y-2697987D01*
X2097024Y-2707639D01*
X2065274Y-2739389D01*
X2109977Y-2739389D01*
X1922779Y-2929128D02*
G01*
X1922779Y-2995929D01*
X1922779Y-2929128D02*
G01*
X1951481Y-2929128D01*
X1960879Y-2932176D01*
X1964181Y-2935478D01*
X1967229Y-2941828D01*
X1967229Y-2951479D01*
X1964181Y-2957829D01*
X1960879Y-2960878D01*
X1951481Y-2964179D01*
X1922779Y-2964179D01*
X2013711Y-2929128D02*
G01*
X1988311Y-2995929D01*
X2013711Y-2929128D02*
G01*
X2039111Y-2995929D01*
X1997963Y-2973578D02*
G01*
X2029713Y-2973578D01*
X2066543Y-2929128D02*
G01*
X2101595Y-2929128D01*
X2082545Y-2954528D01*
X2091943Y-2954528D01*
X2098547Y-2957829D01*
X2101595Y-2960878D01*
X2104897Y-2970529D01*
X2104897Y-2976879D01*
X2101595Y-2986278D01*
X2095245Y-2992628D01*
X2085593Y-2995929D01*
X2076195Y-2995929D01*
X2066543Y-2992628D01*
X2063495Y-2989579D01*
X2060193Y-2983229D01*
X1925320Y-3185668D02*
G01*
X1925320Y-3252470D01*
X1925320Y-3185668D02*
G01*
X1954022Y-3185668D01*
X1963420Y-3188715D01*
X1966722Y-3192018D01*
X1969770Y-3198368D01*
X1969770Y-3208020D01*
X1966722Y-3214370D01*
X1963420Y-3217418D01*
X1954022Y-3220720D01*
X1925320Y-3220720D01*
X2016252Y-3185668D02*
G01*
X1990852Y-3252470D01*
X2016252Y-3185668D02*
G01*
X2041652Y-3252470D01*
X2000504Y-3230118D02*
G01*
X2032254Y-3230118D01*
X2094484Y-3185668D02*
G01*
X2062734Y-3230118D01*
X2110486Y-3230118D01*
X2094484Y-3185668D02*
G01*
X2094484Y-3252470D01*
X1927860Y-3437128D02*
G01*
X1927860Y-3503929D01*
X1927860Y-3437128D02*
G01*
X1956561Y-3437128D01*
X1965959Y-3440176D01*
X1969261Y-3443478D01*
X1972309Y-3449828D01*
X1972309Y-3459479D01*
X1969261Y-3465829D01*
X1965959Y-3468878D01*
X1956561Y-3472179D01*
X1927860Y-3472179D01*
X2018791Y-3437128D02*
G01*
X1993391Y-3503929D01*
X2018791Y-3437128D02*
G01*
X2044191Y-3503929D01*
X2003043Y-3481578D02*
G01*
X2034793Y-3481578D01*
X2103627Y-3437128D02*
G01*
X2071624Y-3437128D01*
X2068575Y-3465829D01*
X2071624Y-3462528D01*
X2081275Y-3459479D01*
X2090674Y-3459479D01*
X2100325Y-3462528D01*
X2106675Y-3468878D01*
X2109977Y-3478529D01*
X2109977Y-3484879D01*
X2106675Y-3494278D01*
X2100325Y-3500628D01*
X2090674Y-3503929D01*
X2081275Y-3503929D01*
X2071624Y-3500628D01*
X2068575Y-3497579D01*
X2065274Y-3491229D01*
X1927860Y-3693668D02*
G01*
X1927860Y-3760470D01*
X1927860Y-3693668D02*
G01*
X1956561Y-3693668D01*
X1965959Y-3696715D01*
X1969261Y-3700018D01*
X1972309Y-3706368D01*
X1972309Y-3716020D01*
X1969261Y-3722370D01*
X1965959Y-3725418D01*
X1956561Y-3728720D01*
X1927860Y-3728720D01*
X2018791Y-3693668D02*
G01*
X1993391Y-3760470D01*
X2018791Y-3693668D02*
G01*
X2044191Y-3760470D01*
X2003043Y-3738118D02*
G01*
X2034793Y-3738118D01*
X2103627Y-3703065D02*
G01*
X2100325Y-3696715D01*
X2090674Y-3693668D01*
X2084324Y-3693668D01*
X2074925Y-3696715D01*
X2068575Y-3706368D01*
X2065274Y-3722370D01*
X2065274Y-3738118D01*
X2068575Y-3750818D01*
X2074925Y-3757168D01*
X2084324Y-3760470D01*
X2087625Y-3760470D01*
X2097024Y-3757168D01*
X2103627Y-3750818D01*
X2106675Y-3741420D01*
X2106675Y-3738118D01*
X2103627Y-3728720D01*
X2097024Y-3722370D01*
X2087625Y-3719068D01*
X2084324Y-3719068D01*
X2074925Y-3722370D01*
X2068575Y-3728720D01*
X2065274Y-3738118D01*
X1927860Y-3942587D02*
G01*
X1927860Y-4009389D01*
X1927860Y-3942587D02*
G01*
X1956561Y-3942587D01*
X1965959Y-3945636D01*
X1969261Y-3948937D01*
X1972309Y-3955287D01*
X1972309Y-3964939D01*
X1969261Y-3971289D01*
X1965959Y-3974337D01*
X1956561Y-3977639D01*
X1927860Y-3977639D01*
X2018791Y-3942587D02*
G01*
X1993391Y-4009389D01*
X2018791Y-3942587D02*
G01*
X2044191Y-4009389D01*
X2003043Y-3987037D02*
G01*
X2034793Y-3987037D01*
X2109977Y-3942587D02*
G01*
X2077974Y-4009389D01*
X2065274Y-3942587D02*
G01*
X2109977Y-3942587D01*
X1935479Y-4191507D02*
G01*
X1935479Y-4258310D01*
X1935479Y-4191507D02*
G01*
X1964181Y-4191507D01*
X1973579Y-4194555D01*
X1976881Y-4197857D01*
X1979929Y-4204207D01*
X1979929Y-4213860D01*
X1976881Y-4220210D01*
X1973579Y-4223257D01*
X1964181Y-4226560D01*
X1935479Y-4226560D01*
X2001011Y-4191507D02*
G01*
X2001011Y-4258310D01*
X2001011Y-4191507D02*
G01*
X2029713Y-4191507D01*
X2039111Y-4194555D01*
X2042413Y-4197857D01*
X2045461Y-4204207D01*
X2045461Y-4210557D01*
X2042413Y-4216907D01*
X2039111Y-4220210D01*
X2029713Y-4223257D01*
X2001011Y-4223257D02*
G01*
X2029713Y-4223257D01*
X2039111Y-4226560D01*
X2042413Y-4229607D01*
X2045461Y-4235957D01*
X2045461Y-4245610D01*
X2042413Y-4251960D01*
X2039111Y-4255007D01*
X2029713Y-4258310D01*
X2001011Y-4258310D01*
X2085593Y-4191507D02*
G01*
X2076195Y-4194555D01*
X2069845Y-4204207D01*
X2066543Y-4220210D01*
X2066543Y-4229607D01*
X2069845Y-4245610D01*
X2076195Y-4255007D01*
X2085593Y-4258310D01*
X2091943Y-4258310D01*
X2101595Y-4255007D01*
X2107945Y-4245610D01*
X2111247Y-4229607D01*
X2111247Y-4220210D01*
X2107945Y-4204207D01*
X2101595Y-4194555D01*
X2091943Y-4191507D01*
X2085593Y-4191507D01*
X1945640Y-4448047D02*
G01*
X1945640Y-4514850D01*
X1945640Y-4448047D02*
G01*
X1974341Y-4448047D01*
X1983740Y-4451095D01*
X1987041Y-4454397D01*
X1990090Y-4460747D01*
X1990090Y-4470400D01*
X1987041Y-4476750D01*
X1983740Y-4479797D01*
X1974341Y-4483100D01*
X1945640Y-4483100D01*
X2011172Y-4448047D02*
G01*
X2011172Y-4514850D01*
X2011172Y-4448047D02*
G01*
X2039874Y-4448047D01*
X2049272Y-4451095D01*
X2052574Y-4454397D01*
X2055622Y-4460747D01*
X2055622Y-4467097D01*
X2052574Y-4473447D01*
X2049272Y-4476750D01*
X2039874Y-4479797D01*
X2011172Y-4479797D02*
G01*
X2039874Y-4479797D01*
X2049272Y-4483100D01*
X2052574Y-4486147D01*
X2055622Y-4492497D01*
X2055622Y-4502150D01*
X2052574Y-4508500D01*
X2049272Y-4511547D01*
X2039874Y-4514850D01*
X2011172Y-4514850D01*
X2076704Y-4460747D02*
G01*
X2083054Y-4457445D01*
X2092706Y-4448047D01*
X2092706Y-4514850D01*
X1902460Y-4704587D02*
G01*
X1902460Y-4771389D01*
X1902460Y-4704587D02*
G01*
X1931161Y-4704587D01*
X1940559Y-4707636D01*
X1943861Y-4710937D01*
X1946909Y-4717287D01*
X1946909Y-4726939D01*
X1943861Y-4733289D01*
X1940559Y-4736337D01*
X1931161Y-4739639D01*
X1902460Y-4739639D01*
X1967991Y-4704587D02*
G01*
X1967991Y-4771389D01*
X1967991Y-4704587D02*
G01*
X1996693Y-4704587D01*
X2006091Y-4707636D01*
X2009393Y-4710937D01*
X2012441Y-4717287D01*
X2012441Y-4723637D01*
X2009393Y-4729987D01*
X2006091Y-4733289D01*
X1996693Y-4736337D01*
X1967991Y-4736337D02*
G01*
X1996693Y-4736337D01*
X2006091Y-4739639D01*
X2009393Y-4742687D01*
X2012441Y-4749037D01*
X2012441Y-4758689D01*
X2009393Y-4765039D01*
X2006091Y-4768087D01*
X1996693Y-4771389D01*
X1967991Y-4771389D01*
X2033524Y-4717287D02*
G01*
X2039874Y-4713986D01*
X2049525Y-4704587D01*
X2049525Y-4771389D01*
X2089658Y-4704587D02*
G01*
X2080006Y-4707636D01*
X2073656Y-4717287D01*
X2070354Y-4733289D01*
X2070354Y-4742687D01*
X2073656Y-4758689D01*
X2080006Y-4768087D01*
X2089658Y-4771389D01*
X2096008Y-4771389D01*
X2105406Y-4768087D01*
X2111756Y-4758689D01*
X2115058Y-4742687D01*
X2115058Y-4733289D01*
X2111756Y-4717287D01*
X2105406Y-4707636D01*
X2096008Y-4704587D01*
X2089658Y-4704587D01*
X1917700Y-4956047D02*
G01*
X1917700Y-5022850D01*
X1917700Y-4956047D02*
G01*
X1946402Y-4956047D01*
X1955800Y-4959095D01*
X1959102Y-4962397D01*
X1962150Y-4968747D01*
X1962150Y-4978400D01*
X1959102Y-4984750D01*
X1955800Y-4987797D01*
X1946402Y-4991100D01*
X1917700Y-4991100D01*
X1983231Y-4956047D02*
G01*
X1983231Y-5022850D01*
X1983231Y-4956047D02*
G01*
X2011934Y-4956047D01*
X2021331Y-4959095D01*
X2024634Y-4962397D01*
X2027681Y-4968747D01*
X2027681Y-4975097D01*
X2024634Y-4981447D01*
X2021331Y-4984750D01*
X2011934Y-4987797D01*
X1983231Y-4987797D02*
G01*
X2011934Y-4987797D01*
X2021331Y-4991100D01*
X2024634Y-4994147D01*
X2027681Y-5000497D01*
X2027681Y-5010150D01*
X2024634Y-5016500D01*
X2021331Y-5019547D01*
X2011934Y-5022850D01*
X1983231Y-5022850D01*
X2048763Y-4968747D02*
G01*
X2055113Y-4965445D01*
X2064765Y-4956047D01*
X2064765Y-5022850D01*
X2085593Y-4968747D02*
G01*
X2091943Y-4965445D01*
X2101595Y-4956047D01*
X2101595Y-5022850D01*
X1932940Y-5209539D02*
G01*
X1932940Y-5276342D01*
X1932940Y-5209539D02*
G01*
X1961641Y-5209539D01*
X1971040Y-5212587D01*
X1974341Y-5215889D01*
X1977390Y-5222239D01*
X1977390Y-5228589D01*
X1974341Y-5234939D01*
X1971040Y-5237987D01*
X1961641Y-5241289D01*
X1932940Y-5241289D01*
X1955291Y-5241289D02*
G01*
X1977390Y-5276342D01*
X2042922Y-5218937D02*
G01*
X2036572Y-5212587D01*
X2027174Y-5209539D01*
X2014474Y-5209539D01*
X2004822Y-5212587D01*
X1998472Y-5218937D01*
X1998472Y-5225287D01*
X2001774Y-5231637D01*
X2004822Y-5234939D01*
X2011172Y-5237987D01*
X2030222Y-5244337D01*
X2036572Y-5247639D01*
X2039874Y-5250942D01*
X2042922Y-5257292D01*
X2042922Y-5266689D01*
X2036572Y-5273039D01*
X2027174Y-5276342D01*
X2014474Y-5276342D01*
X2004822Y-5273039D01*
X1998472Y-5266689D01*
X2086356Y-5209539D02*
G01*
X2086356Y-5276342D01*
X2064004Y-5209539D02*
G01*
X2108454Y-5209539D01*
X1911350Y-5469128D02*
G01*
X1946402Y-5469128D01*
X1927352Y-5494528D01*
X1936750Y-5494528D01*
X1943100Y-5497829D01*
X1946402Y-5500878D01*
X1949450Y-5510529D01*
X1949450Y-5516879D01*
X1946402Y-5526278D01*
X1940052Y-5532628D01*
X1930400Y-5535929D01*
X1921002Y-5535929D01*
X1911350Y-5532628D01*
X1908302Y-5529579D01*
X1905000Y-5523229D01*
X1973834Y-5519928D02*
G01*
X1970531Y-5523229D01*
X1973834Y-5526278D01*
X1976881Y-5523229D01*
X1973834Y-5519928D01*
X2004313Y-5469128D02*
G01*
X2039365Y-5469128D01*
X2020061Y-5494528D01*
X2029713Y-5494528D01*
X2036063Y-5497829D01*
X2039365Y-5500878D01*
X2042413Y-5510529D01*
X2042413Y-5516879D01*
X2039365Y-5526278D01*
X2033015Y-5532628D01*
X2023363Y-5535929D01*
X2013711Y-5535929D01*
X2004313Y-5532628D01*
X2001011Y-5529579D01*
X1997963Y-5523229D01*
X2063495Y-5469128D02*
G01*
X2088895Y-5535929D01*
X2114295Y-5469128D02*
G01*
X2088895Y-5535929D01*
X1970531Y-5730747D02*
G01*
X1967229Y-5724397D01*
X1960879Y-5718047D01*
X1954529Y-5715000D01*
X1941829Y-5715000D01*
X1935479Y-5718047D01*
X1929129Y-5724397D01*
X1926081Y-5730747D01*
X1922779Y-5740400D01*
X1922779Y-5756402D01*
X1926081Y-5765800D01*
X1929129Y-5772150D01*
X1935479Y-5778500D01*
X1941829Y-5781802D01*
X1954529Y-5781802D01*
X1960879Y-5778500D01*
X1967229Y-5772150D01*
X1970531Y-5765800D01*
X1970531Y-5756402D01*
X1954529Y-5756402D02*
G01*
X1970531Y-5756402D01*
X1991613Y-5715000D02*
G01*
X1991613Y-5781802D01*
X1991613Y-5715000D02*
G01*
X2036063Y-5781802D01*
X2036063Y-5715000D02*
G01*
X2036063Y-5781802D01*
X2057145Y-5715000D02*
G01*
X2057145Y-5781802D01*
X2057145Y-5715000D02*
G01*
X2079243Y-5715000D01*
X2088895Y-5718047D01*
X2095245Y-5724397D01*
X2098293Y-5730747D01*
X2101595Y-5740400D01*
X2101595Y-5756402D01*
X2098293Y-5765800D01*
X2095245Y-5772150D01*
X2088895Y-5778500D01*
X2079243Y-5781802D01*
X2057145Y-5781802D01*
X1973072Y-5984747D02*
G01*
X1969770Y-5978397D01*
X1963420Y-5972047D01*
X1957070Y-5969000D01*
X1944370Y-5969000D01*
X1938020Y-5972047D01*
X1931670Y-5978397D01*
X1928621Y-5984747D01*
X1925320Y-5994400D01*
X1925320Y-6010402D01*
X1928621Y-6019800D01*
X1931670Y-6026150D01*
X1938020Y-6032500D01*
X1944370Y-6035802D01*
X1957070Y-6035802D01*
X1963420Y-6032500D01*
X1969770Y-6026150D01*
X1973072Y-6019800D01*
X1973072Y-6010402D01*
X1957070Y-6010402D02*
G01*
X1973072Y-6010402D01*
X1994154Y-5969000D02*
G01*
X1994154Y-6035802D01*
X1994154Y-5969000D02*
G01*
X2038604Y-6035802D01*
X2038604Y-5969000D02*
G01*
X2038604Y-6035802D01*
X2059686Y-5969000D02*
G01*
X2059686Y-6035802D01*
X2059686Y-5969000D02*
G01*
X2081784Y-5969000D01*
X2091436Y-5972047D01*
X2097786Y-5978397D01*
X2100834Y-5984747D01*
X2104136Y-5994400D01*
X2104136Y-6010402D01*
X2100834Y-6019800D01*
X2097786Y-6026150D01*
X2091436Y-6032500D01*
X2081784Y-6035802D01*
X2059686Y-6035802D01*
X3907790Y-1148587D02*
G01*
X3942841Y-1148587D01*
X3923791Y-1173987D01*
X3933190Y-1173987D01*
X3939540Y-1177289D01*
X3942841Y-1180337D01*
X3945890Y-1189989D01*
X3945890Y-1196339D01*
X3942841Y-1205737D01*
X3936491Y-1212087D01*
X3926840Y-1215389D01*
X3917441Y-1215389D01*
X3907790Y-1212087D01*
X3904741Y-1209039D01*
X3901440Y-1202689D01*
X3970274Y-1199387D02*
G01*
X3966972Y-1202689D01*
X3970274Y-1205737D01*
X3973322Y-1202689D01*
X3970274Y-1199387D01*
X4000754Y-1148587D02*
G01*
X4035806Y-1148587D01*
X4016502Y-1173987D01*
X4026154Y-1173987D01*
X4032504Y-1177289D01*
X4035806Y-1180337D01*
X4038854Y-1189989D01*
X4038854Y-1196339D01*
X4035806Y-1205737D01*
X4029456Y-1212087D01*
X4019804Y-1215389D01*
X4010152Y-1215389D01*
X4000754Y-1212087D01*
X3997452Y-1209039D01*
X3994404Y-1202689D01*
X4059936Y-1148587D02*
G01*
X4085336Y-1215389D01*
X4110736Y-1148587D02*
G01*
X4085336Y-1215389D01*
X3951731Y-1425447D02*
G01*
X3948429Y-1419097D01*
X3942079Y-1412747D01*
X3935729Y-1409700D01*
X3923029Y-1409700D01*
X3916679Y-1412747D01*
X3910329Y-1419097D01*
X3907281Y-1425447D01*
X3903979Y-1435100D01*
X3903979Y-1451102D01*
X3907281Y-1460500D01*
X3910329Y-1466850D01*
X3916679Y-1473200D01*
X3923029Y-1476502D01*
X3935729Y-1476502D01*
X3942079Y-1473200D01*
X3948429Y-1466850D01*
X3951731Y-1460500D01*
X3951731Y-1451102D01*
X3935729Y-1451102D02*
G01*
X3951731Y-1451102D01*
X3972813Y-1409700D02*
G01*
X3972813Y-1476502D01*
X3972813Y-1409700D02*
G01*
X4017263Y-1476502D01*
X4017263Y-1409700D02*
G01*
X4017263Y-1476502D01*
X4038345Y-1409700D02*
G01*
X4038345Y-1476502D01*
X4038345Y-1409700D02*
G01*
X4060443Y-1409700D01*
X4070095Y-1412747D01*
X4076445Y-1419097D01*
X4079493Y-1425447D01*
X4082795Y-1435100D01*
X4082795Y-1451102D01*
X4079493Y-1460500D01*
X4076445Y-1466850D01*
X4070095Y-1473200D01*
X4060443Y-1476502D01*
X4038345Y-1476502D01*
X3972559Y-1659128D02*
G01*
X3940809Y-1659128D01*
X3937761Y-1687829D01*
X3940809Y-1684528D01*
X3950461Y-1681479D01*
X3959859Y-1681479D01*
X3969511Y-1684528D01*
X3975861Y-1690878D01*
X3978909Y-1700529D01*
X3978909Y-1706879D01*
X3975861Y-1716278D01*
X3969511Y-1722628D01*
X3959859Y-1725929D01*
X3950461Y-1725929D01*
X3940809Y-1722628D01*
X3937761Y-1719579D01*
X3934459Y-1713229D01*
X3999991Y-1659128D02*
G01*
X4025391Y-1725929D01*
X4050791Y-1659128D02*
G01*
X4025391Y-1725929D01*
X3901440Y-1913128D02*
G01*
X3901440Y-1979929D01*
X3901440Y-1913128D02*
G01*
X3930141Y-1913128D01*
X3939540Y-1916176D01*
X3942841Y-1919478D01*
X3945890Y-1925828D01*
X3945890Y-1935479D01*
X3942841Y-1941829D01*
X3939540Y-1944878D01*
X3930141Y-1948179D01*
X3901440Y-1948179D01*
X3966972Y-1913128D02*
G01*
X3966972Y-1979929D01*
X3966972Y-1913128D02*
G01*
X3995674Y-1913128D01*
X4005072Y-1916176D01*
X4008374Y-1919478D01*
X4011422Y-1925828D01*
X4011422Y-1932178D01*
X4008374Y-1938528D01*
X4005072Y-1941829D01*
X3995674Y-1944878D01*
X3966972Y-1944878D02*
G01*
X3995674Y-1944878D01*
X4005072Y-1948179D01*
X4008374Y-1951228D01*
X4011422Y-1957578D01*
X4011422Y-1967229D01*
X4008374Y-1973579D01*
X4005072Y-1976628D01*
X3995674Y-1979929D01*
X3966972Y-1979929D01*
X4073906Y-1935479D02*
G01*
X4070604Y-1944878D01*
X4064254Y-1951228D01*
X4054856Y-1954529D01*
X4051554Y-1954529D01*
X4042156Y-1951228D01*
X4035806Y-1944878D01*
X4032504Y-1935479D01*
X4032504Y-1932178D01*
X4035806Y-1922526D01*
X4042156Y-1916176D01*
X4051554Y-1913128D01*
X4054856Y-1913128D01*
X4064254Y-1916176D01*
X4070604Y-1922526D01*
X4073906Y-1935479D01*
X4073906Y-1951228D01*
X4070604Y-1967229D01*
X4064254Y-1976628D01*
X4054856Y-1979929D01*
X4048506Y-1979929D01*
X4038854Y-1976628D01*
X4035806Y-1970278D01*
X3903979Y-2161539D02*
G01*
X3903979Y-2228342D01*
X3903979Y-2161539D02*
G01*
X3932681Y-2161539D01*
X3942079Y-2164587D01*
X3945381Y-2167889D01*
X3948429Y-2174239D01*
X3948429Y-2183637D01*
X3945381Y-2189987D01*
X3942079Y-2193289D01*
X3932681Y-2196337D01*
X3903979Y-2196337D01*
X3969511Y-2161539D02*
G01*
X3969511Y-2228342D01*
X3969511Y-2161539D02*
G01*
X3998213Y-2161539D01*
X4007611Y-2164587D01*
X4010913Y-2167889D01*
X4013961Y-2174239D01*
X4013961Y-2180589D01*
X4010913Y-2186939D01*
X4007611Y-2189987D01*
X3998213Y-2193289D01*
X3969511Y-2193289D02*
G01*
X3998213Y-2193289D01*
X4007611Y-2196337D01*
X4010913Y-2199639D01*
X4013961Y-2205989D01*
X4013961Y-2215642D01*
X4010913Y-2221992D01*
X4007611Y-2225039D01*
X3998213Y-2228342D01*
X3969511Y-2228342D01*
X4051045Y-2161539D02*
G01*
X4041393Y-2164587D01*
X4038345Y-2170937D01*
X4038345Y-2177287D01*
X4041393Y-2183637D01*
X4047743Y-2186939D01*
X4060443Y-2189987D01*
X4070095Y-2193289D01*
X4076445Y-2199639D01*
X4079493Y-2205989D01*
X4079493Y-2215642D01*
X4076445Y-2221992D01*
X4073143Y-2225039D01*
X4063745Y-2228342D01*
X4051045Y-2228342D01*
X4041393Y-2225039D01*
X4038345Y-2221992D01*
X4035043Y-2215642D01*
X4035043Y-2205989D01*
X4038345Y-2199639D01*
X4044695Y-2193289D01*
X4054093Y-2189987D01*
X4066793Y-2186939D01*
X4073143Y-2183637D01*
X4076445Y-2177287D01*
X4076445Y-2170937D01*
X4073143Y-2164587D01*
X4063745Y-2161539D01*
X4051045Y-2161539D01*
X3896359Y-2418587D02*
G01*
X3896359Y-2485389D01*
X3896359Y-2418587D02*
G01*
X3925061Y-2418587D01*
X3934459Y-2421636D01*
X3937761Y-2424937D01*
X3940809Y-2431287D01*
X3940809Y-2440939D01*
X3937761Y-2447289D01*
X3934459Y-2450337D01*
X3925061Y-2453639D01*
X3896359Y-2453639D01*
X3961891Y-2418587D02*
G01*
X3961891Y-2485389D01*
X3961891Y-2418587D02*
G01*
X3990593Y-2418587D01*
X3999991Y-2421636D01*
X4003293Y-2424937D01*
X4006341Y-2431287D01*
X4006341Y-2437637D01*
X4003293Y-2443987D01*
X3999991Y-2447289D01*
X3990593Y-2450337D01*
X3961891Y-2450337D02*
G01*
X3990593Y-2450337D01*
X3999991Y-2453639D01*
X4003293Y-2456687D01*
X4006341Y-2463037D01*
X4006341Y-2472689D01*
X4003293Y-2479039D01*
X3999991Y-2482087D01*
X3990593Y-2485389D01*
X3961891Y-2485389D01*
X4072127Y-2418587D02*
G01*
X4040124Y-2485389D01*
X4027424Y-2418587D02*
G01*
X4072127Y-2418587D01*
X3898900Y-2670047D02*
G01*
X3898900Y-2736850D01*
X3898900Y-2670047D02*
G01*
X3927602Y-2670047D01*
X3937000Y-2673095D01*
X3940302Y-2676397D01*
X3943350Y-2682747D01*
X3943350Y-2692400D01*
X3940302Y-2698750D01*
X3937000Y-2701797D01*
X3927602Y-2705100D01*
X3898900Y-2705100D01*
X3964431Y-2670047D02*
G01*
X3964431Y-2736850D01*
X3964431Y-2670047D02*
G01*
X3993134Y-2670047D01*
X4002531Y-2673095D01*
X4005834Y-2676397D01*
X4008881Y-2682747D01*
X4008881Y-2689097D01*
X4005834Y-2695447D01*
X4002531Y-2698750D01*
X3993134Y-2701797D01*
X3964431Y-2701797D02*
G01*
X3993134Y-2701797D01*
X4002531Y-2705100D01*
X4005834Y-2708147D01*
X4008881Y-2714497D01*
X4008881Y-2724150D01*
X4005834Y-2730500D01*
X4002531Y-2733547D01*
X3993134Y-2736850D01*
X3964431Y-2736850D01*
X4068063Y-2679445D02*
G01*
X4065015Y-2673095D01*
X4055363Y-2670047D01*
X4049013Y-2670047D01*
X4039615Y-2673095D01*
X4033265Y-2682747D01*
X4029963Y-2698750D01*
X4029963Y-2714497D01*
X4033265Y-2727197D01*
X4039615Y-2733547D01*
X4049013Y-2736850D01*
X4052315Y-2736850D01*
X4061713Y-2733547D01*
X4068063Y-2727197D01*
X4071365Y-2717800D01*
X4071365Y-2714497D01*
X4068063Y-2705100D01*
X4061713Y-2698750D01*
X4052315Y-2695447D01*
X4049013Y-2695447D01*
X4039615Y-2698750D01*
X4033265Y-2705100D01*
X4029963Y-2714497D01*
X3901440Y-2926587D02*
G01*
X3901440Y-2993389D01*
X3901440Y-2926587D02*
G01*
X3930141Y-2926587D01*
X3939540Y-2929636D01*
X3942841Y-2932937D01*
X3945890Y-2939287D01*
X3945890Y-2948939D01*
X3942841Y-2955289D01*
X3939540Y-2958337D01*
X3930141Y-2961639D01*
X3901440Y-2961639D01*
X3966972Y-2926587D02*
G01*
X3966972Y-2993389D01*
X3966972Y-2926587D02*
G01*
X3995674Y-2926587D01*
X4005072Y-2929636D01*
X4008374Y-2932937D01*
X4011422Y-2939287D01*
X4011422Y-2945637D01*
X4008374Y-2951987D01*
X4005072Y-2955289D01*
X3995674Y-2958337D01*
X3966972Y-2958337D02*
G01*
X3995674Y-2958337D01*
X4005072Y-2961639D01*
X4008374Y-2964687D01*
X4011422Y-2971037D01*
X4011422Y-2980689D01*
X4008374Y-2987039D01*
X4005072Y-2990087D01*
X3995674Y-2993389D01*
X3966972Y-2993389D01*
X4070604Y-2926587D02*
G01*
X4038854Y-2926587D01*
X4035806Y-2955289D01*
X4038854Y-2951987D01*
X4048506Y-2948939D01*
X4057904Y-2948939D01*
X4067556Y-2951987D01*
X4073906Y-2958337D01*
X4077208Y-2967989D01*
X4077208Y-2974339D01*
X4073906Y-2983737D01*
X4067556Y-2990087D01*
X4057904Y-2993389D01*
X4048506Y-2993389D01*
X4038854Y-2990087D01*
X4035806Y-2987039D01*
X4032504Y-2980689D01*
X3901440Y-3180587D02*
G01*
X3901440Y-3247389D01*
X3901440Y-3180587D02*
G01*
X3930141Y-3180587D01*
X3939540Y-3183636D01*
X3942841Y-3186937D01*
X3945890Y-3193287D01*
X3945890Y-3202939D01*
X3942841Y-3209289D01*
X3939540Y-3212337D01*
X3930141Y-3215639D01*
X3901440Y-3215639D01*
X3966972Y-3180587D02*
G01*
X3966972Y-3247389D01*
X3966972Y-3180587D02*
G01*
X3995674Y-3180587D01*
X4005072Y-3183636D01*
X4008374Y-3186937D01*
X4011422Y-3193287D01*
X4011422Y-3199637D01*
X4008374Y-3205987D01*
X4005072Y-3209289D01*
X3995674Y-3212337D01*
X3966972Y-3212337D02*
G01*
X3995674Y-3212337D01*
X4005072Y-3215639D01*
X4008374Y-3218687D01*
X4011422Y-3225037D01*
X4011422Y-3234689D01*
X4008374Y-3241039D01*
X4005072Y-3244087D01*
X3995674Y-3247389D01*
X3966972Y-3247389D01*
X4064254Y-3180587D02*
G01*
X4032504Y-3225037D01*
X4080256Y-3225037D01*
X4064254Y-3180587D02*
G01*
X4064254Y-3247389D01*
X3909059Y-3439668D02*
G01*
X3909059Y-3506470D01*
X3909059Y-3439668D02*
G01*
X3937761Y-3439668D01*
X3947159Y-3442715D01*
X3950461Y-3446018D01*
X3953509Y-3452368D01*
X3953509Y-3462020D01*
X3950461Y-3468370D01*
X3947159Y-3471418D01*
X3937761Y-3474720D01*
X3909059Y-3474720D01*
X3974591Y-3439668D02*
G01*
X3974591Y-3506470D01*
X3974591Y-3439668D02*
G01*
X4003293Y-3439668D01*
X4012691Y-3442715D01*
X4015993Y-3446018D01*
X4019041Y-3452368D01*
X4019041Y-3458718D01*
X4015993Y-3465068D01*
X4012691Y-3468370D01*
X4003293Y-3471418D01*
X3974591Y-3471418D02*
G01*
X4003293Y-3471418D01*
X4012691Y-3474720D01*
X4015993Y-3477768D01*
X4019041Y-3484118D01*
X4019041Y-3493770D01*
X4015993Y-3500120D01*
X4012691Y-3503168D01*
X4003293Y-3506470D01*
X3974591Y-3506470D01*
X4046474Y-3439668D02*
G01*
X4081525Y-3439668D01*
X4062475Y-3465068D01*
X4071874Y-3465068D01*
X4078224Y-3468370D01*
X4081525Y-3471418D01*
X4084827Y-3481070D01*
X4084827Y-3487420D01*
X4081525Y-3496818D01*
X4075175Y-3503168D01*
X4065524Y-3506470D01*
X4056125Y-3506470D01*
X4046474Y-3503168D01*
X4043425Y-3500120D01*
X4040124Y-3493770D01*
X3903979Y-3686047D02*
G01*
X3903979Y-3752850D01*
X3903979Y-3686047D02*
G01*
X3932681Y-3686047D01*
X3942079Y-3689095D01*
X3945381Y-3692397D01*
X3948429Y-3698747D01*
X3948429Y-3708400D01*
X3945381Y-3714750D01*
X3942079Y-3717797D01*
X3932681Y-3721100D01*
X3903979Y-3721100D01*
X3994911Y-3686047D02*
G01*
X3969511Y-3752850D01*
X3994911Y-3686047D02*
G01*
X4020311Y-3752850D01*
X3979163Y-3730497D02*
G01*
X4010913Y-3730497D01*
X4041393Y-3698747D02*
G01*
X4047743Y-3695445D01*
X4057395Y-3686047D01*
X4057395Y-3752850D01*
X4116577Y-3686047D02*
G01*
X4084827Y-3686047D01*
X4081525Y-3714750D01*
X4084827Y-3711447D01*
X4094225Y-3708400D01*
X4103877Y-3708400D01*
X4113275Y-3711447D01*
X4119625Y-3717797D01*
X4122927Y-3727450D01*
X4122927Y-3733800D01*
X4119625Y-3743197D01*
X4113275Y-3749547D01*
X4103877Y-3752850D01*
X4094225Y-3752850D01*
X4084827Y-3749547D01*
X4081525Y-3746500D01*
X4078224Y-3740150D01*
X3898900Y-3945128D02*
G01*
X3898900Y-4011929D01*
X3898900Y-3945128D02*
G01*
X3927602Y-3945128D01*
X3937000Y-3948176D01*
X3940302Y-3951478D01*
X3943350Y-3957828D01*
X3943350Y-3967479D01*
X3940302Y-3973829D01*
X3937000Y-3976878D01*
X3927602Y-3980179D01*
X3898900Y-3980179D01*
X3989831Y-3945128D02*
G01*
X3964431Y-4011929D01*
X3989831Y-3945128D02*
G01*
X4015231Y-4011929D01*
X3974084Y-3989578D02*
G01*
X4005834Y-3989578D01*
X4036313Y-3957828D02*
G01*
X4042663Y-3954526D01*
X4052315Y-3945128D01*
X4052315Y-4011929D01*
X4076445Y-3961129D02*
G01*
X4076445Y-3957828D01*
X4079747Y-3951478D01*
X4082795Y-3948176D01*
X4089145Y-3945128D01*
X4101845Y-3945128D01*
X4108195Y-3948176D01*
X4111497Y-3951478D01*
X4114545Y-3957828D01*
X4114545Y-3964178D01*
X4111497Y-3970528D01*
X4105147Y-3980179D01*
X4073143Y-4011929D01*
X4117847Y-4011929D01*
X3903979Y-4194047D02*
G01*
X3903979Y-4260850D01*
X3903979Y-4194047D02*
G01*
X3932681Y-4194047D01*
X3942079Y-4197095D01*
X3945381Y-4200397D01*
X3948429Y-4206747D01*
X3948429Y-4216400D01*
X3945381Y-4222750D01*
X3942079Y-4225797D01*
X3932681Y-4229100D01*
X3903979Y-4229100D01*
X3994911Y-4194047D02*
G01*
X3969511Y-4260850D01*
X3994911Y-4194047D02*
G01*
X4020311Y-4260850D01*
X3979163Y-4238497D02*
G01*
X4010913Y-4238497D01*
X4041393Y-4206747D02*
G01*
X4047743Y-4203445D01*
X4057395Y-4194047D01*
X4057395Y-4260850D01*
X4078224Y-4206747D02*
G01*
X4084827Y-4203445D01*
X4094225Y-4194047D01*
X4094225Y-4260850D01*
X3901440Y-4455668D02*
G01*
X3901440Y-4522470D01*
X3901440Y-4455668D02*
G01*
X3930141Y-4455668D01*
X3939540Y-4458715D01*
X3942841Y-4462018D01*
X3945890Y-4468368D01*
X3945890Y-4478020D01*
X3942841Y-4484370D01*
X3939540Y-4487418D01*
X3930141Y-4490720D01*
X3901440Y-4490720D01*
X3992372Y-4455668D02*
G01*
X3966972Y-4522470D01*
X3992372Y-4455668D02*
G01*
X4017772Y-4522470D01*
X3976624Y-4500118D02*
G01*
X4008374Y-4500118D01*
X4038854Y-4468368D02*
G01*
X4045204Y-4465065D01*
X4054856Y-4455668D01*
X4054856Y-4522470D01*
X4094988Y-4455668D02*
G01*
X4085336Y-4458715D01*
X4078986Y-4468368D01*
X4075684Y-4484370D01*
X4075684Y-4493768D01*
X4078986Y-4509770D01*
X4085336Y-4519168D01*
X4094988Y-4522470D01*
X4101338Y-4522470D01*
X4110736Y-4519168D01*
X4117086Y-4509770D01*
X4120388Y-4493768D01*
X4120388Y-4484370D01*
X4117086Y-4468368D01*
X4110736Y-4458715D01*
X4101338Y-4455668D01*
X4094988Y-4455668D01*
X3901440Y-4707128D02*
G01*
X3901440Y-4773929D01*
X3901440Y-4707128D02*
G01*
X3930141Y-4707128D01*
X3939540Y-4710176D01*
X3942841Y-4713478D01*
X3945890Y-4719828D01*
X3945890Y-4729479D01*
X3942841Y-4735829D01*
X3939540Y-4738878D01*
X3930141Y-4742179D01*
X3901440Y-4742179D01*
X3992372Y-4707128D02*
G01*
X3966972Y-4773929D01*
X3992372Y-4707128D02*
G01*
X4017772Y-4773929D01*
X3976624Y-4751578D02*
G01*
X4008374Y-4751578D01*
X4080256Y-4729479D02*
G01*
X4077208Y-4738878D01*
X4070604Y-4745228D01*
X4061206Y-4748529D01*
X4057904Y-4748529D01*
X4048506Y-4745228D01*
X4042156Y-4738878D01*
X4038854Y-4729479D01*
X4038854Y-4726178D01*
X4042156Y-4716526D01*
X4048506Y-4710176D01*
X4057904Y-4707128D01*
X4061206Y-4707128D01*
X4070604Y-4710176D01*
X4077208Y-4716526D01*
X4080256Y-4729479D01*
X4080256Y-4745228D01*
X4077208Y-4761229D01*
X4070604Y-4770628D01*
X4061206Y-4773929D01*
X4054856Y-4773929D01*
X4045204Y-4770628D01*
X4042156Y-4764278D01*
X3903979Y-4958587D02*
G01*
X3903979Y-5025389D01*
X3903979Y-4958587D02*
G01*
X3932681Y-4958587D01*
X3942079Y-4961636D01*
X3945381Y-4964937D01*
X3948429Y-4971287D01*
X3948429Y-4980939D01*
X3945381Y-4987289D01*
X3942079Y-4990337D01*
X3932681Y-4993639D01*
X3903979Y-4993639D01*
X3994911Y-4958587D02*
G01*
X3969511Y-5025389D01*
X3994911Y-4958587D02*
G01*
X4020311Y-5025389D01*
X3979163Y-5003037D02*
G01*
X4010913Y-5003037D01*
X4057395Y-4958587D02*
G01*
X4047743Y-4961636D01*
X4044695Y-4967986D01*
X4044695Y-4974589D01*
X4047743Y-4980939D01*
X4054093Y-4983987D01*
X4066793Y-4987289D01*
X4076445Y-4990337D01*
X4082795Y-4996687D01*
X4086097Y-5003037D01*
X4086097Y-5012689D01*
X4082795Y-5019039D01*
X4079747Y-5022087D01*
X4070095Y-5025389D01*
X4057395Y-5025389D01*
X4047743Y-5022087D01*
X4044695Y-5019039D01*
X4041393Y-5012689D01*
X4041393Y-5003037D01*
X4044695Y-4996687D01*
X4051045Y-4990337D01*
X4060443Y-4987289D01*
X4073143Y-4983987D01*
X4079747Y-4980939D01*
X4082795Y-4974589D01*
X4082795Y-4967986D01*
X4079747Y-4961636D01*
X4070095Y-4958587D01*
X4057395Y-4958587D01*
X3906520Y-5210047D02*
G01*
X3906520Y-5276850D01*
X3906520Y-5210047D02*
G01*
X3935222Y-5210047D01*
X3944620Y-5213095D01*
X3947922Y-5216397D01*
X3950970Y-5222747D01*
X3950970Y-5232400D01*
X3947922Y-5238750D01*
X3944620Y-5241797D01*
X3935222Y-5245100D01*
X3906520Y-5245100D01*
X3972052Y-5210047D02*
G01*
X3972052Y-5276850D01*
X3972052Y-5210047D02*
G01*
X4000754Y-5210047D01*
X4010152Y-5213095D01*
X4013454Y-5216397D01*
X4016502Y-5222747D01*
X4016502Y-5229097D01*
X4013454Y-5235447D01*
X4010152Y-5238750D01*
X4000754Y-5241797D01*
X3972052Y-5241797D02*
G01*
X4000754Y-5241797D01*
X4010152Y-5245100D01*
X4013454Y-5248147D01*
X4016502Y-5254497D01*
X4016502Y-5264150D01*
X4013454Y-5270500D01*
X4010152Y-5273547D01*
X4000754Y-5276850D01*
X3972052Y-5276850D01*
X4037584Y-5222747D02*
G01*
X4043934Y-5219445D01*
X4053586Y-5210047D01*
X4053586Y-5276850D01*
X4112768Y-5210047D02*
G01*
X4080763Y-5210047D01*
X4077715Y-5238750D01*
X4080763Y-5235447D01*
X4090415Y-5232400D01*
X4100068Y-5232400D01*
X4109465Y-5235447D01*
X4115815Y-5241797D01*
X4119118Y-5251450D01*
X4119118Y-5257800D01*
X4115815Y-5267197D01*
X4109465Y-5273547D01*
X4100068Y-5276850D01*
X4090415Y-5276850D01*
X4080763Y-5273547D01*
X4077715Y-5270500D01*
X4074413Y-5264150D01*
X3906520Y-5461507D02*
G01*
X3906520Y-5528310D01*
X3906520Y-5461507D02*
G01*
X3935222Y-5461507D01*
X3944620Y-5464555D01*
X3947922Y-5467857D01*
X3950970Y-5474207D01*
X3950970Y-5483860D01*
X3947922Y-5490210D01*
X3944620Y-5493257D01*
X3935222Y-5496560D01*
X3906520Y-5496560D01*
X3972052Y-5461507D02*
G01*
X3972052Y-5528310D01*
X3972052Y-5461507D02*
G01*
X4000754Y-5461507D01*
X4010152Y-5464555D01*
X4013454Y-5467857D01*
X4016502Y-5474207D01*
X4016502Y-5480557D01*
X4013454Y-5486907D01*
X4010152Y-5490210D01*
X4000754Y-5493257D01*
X3972052Y-5493257D02*
G01*
X4000754Y-5493257D01*
X4010152Y-5496560D01*
X4013454Y-5499607D01*
X4016502Y-5505957D01*
X4016502Y-5515610D01*
X4013454Y-5521960D01*
X4010152Y-5525007D01*
X4000754Y-5528310D01*
X3972052Y-5528310D01*
X4037584Y-5474207D02*
G01*
X4043934Y-5470905D01*
X4053586Y-5461507D01*
X4053586Y-5528310D01*
X4106418Y-5461507D02*
G01*
X4074413Y-5505957D01*
X4122165Y-5505957D01*
X4106418Y-5461507D02*
G01*
X4106418Y-5528310D01*
X3906520Y-5715507D02*
G01*
X3906520Y-5782310D01*
X3906520Y-5715507D02*
G01*
X3935222Y-5715507D01*
X3944620Y-5718555D01*
X3947922Y-5721857D01*
X3950970Y-5728207D01*
X3950970Y-5737860D01*
X3947922Y-5744210D01*
X3944620Y-5747257D01*
X3935222Y-5750560D01*
X3906520Y-5750560D01*
X3972052Y-5715507D02*
G01*
X3972052Y-5782310D01*
X3972052Y-5715507D02*
G01*
X4000754Y-5715507D01*
X4010152Y-5718555D01*
X4013454Y-5721857D01*
X4016502Y-5728207D01*
X4016502Y-5734557D01*
X4013454Y-5740907D01*
X4010152Y-5744210D01*
X4000754Y-5747257D01*
X3972052Y-5747257D02*
G01*
X4000754Y-5747257D01*
X4010152Y-5750560D01*
X4013454Y-5753607D01*
X4016502Y-5759957D01*
X4016502Y-5769610D01*
X4013454Y-5775960D01*
X4010152Y-5779007D01*
X4000754Y-5782310D01*
X3972052Y-5782310D01*
X4037584Y-5728207D02*
G01*
X4043934Y-5724905D01*
X4053586Y-5715507D01*
X4053586Y-5782310D01*
X4080763Y-5715507D02*
G01*
X4115815Y-5715507D01*
X4096765Y-5740907D01*
X4106418Y-5740907D01*
X4112768Y-5744210D01*
X4115815Y-5747257D01*
X4119118Y-5756910D01*
X4119118Y-5763260D01*
X4115815Y-5772657D01*
X4109465Y-5779007D01*
X4100068Y-5782310D01*
X4090415Y-5782310D01*
X4080763Y-5779007D01*
X4077715Y-5775960D01*
X4074413Y-5769610D01*
X3903979Y-5979160D02*
G01*
X3903979Y-6045962D01*
X3903979Y-5979160D02*
G01*
X3932681Y-5979160D01*
X3942079Y-5982207D01*
X3945381Y-5985510D01*
X3948429Y-5991860D01*
X3948429Y-6001257D01*
X3945381Y-6007607D01*
X3942079Y-6010910D01*
X3932681Y-6013957D01*
X3903979Y-6013957D01*
X3969511Y-5979160D02*
G01*
X3969511Y-6045962D01*
X3969511Y-5979160D02*
G01*
X3998213Y-5979160D01*
X4007611Y-5982207D01*
X4010913Y-5985510D01*
X4013961Y-5991860D01*
X4013961Y-5998210D01*
X4010913Y-6004560D01*
X4007611Y-6007607D01*
X3998213Y-6010910D01*
X3969511Y-6010910D02*
G01*
X3998213Y-6010910D01*
X4007611Y-6013957D01*
X4010913Y-6017260D01*
X4013961Y-6023610D01*
X4013961Y-6033262D01*
X4010913Y-6039612D01*
X4007611Y-6042660D01*
X3998213Y-6045962D01*
X3969511Y-6045962D01*
X4035043Y-5991860D02*
G01*
X4041393Y-5988557D01*
X4051045Y-5979160D01*
X4051045Y-6045962D01*
X4075175Y-5994907D02*
G01*
X4075175Y-5991860D01*
X4078224Y-5985510D01*
X4081525Y-5982207D01*
X4087875Y-5979160D01*
X4100575Y-5979160D01*
X4106925Y-5982207D01*
X4110227Y-5985510D01*
X4113275Y-5991860D01*
X4113275Y-5998210D01*
X4110227Y-6004560D01*
X4103877Y-6013957D01*
X4071874Y-6045962D01*
X4116577Y-6045962D01*
D11*
X2939541Y-4493513D02*
G01*
X2921000Y-4512055D01*
X2911856Y-4539742D01*
X2911856Y-4576571D01*
X2921000Y-4604257D01*
X2939541Y-4622800D01*
X2957829Y-4622800D01*
X2976372Y-4613655D01*
X2985770Y-4604257D01*
X2994913Y-4585970D01*
X3013456Y-4530344D01*
X3022600Y-4512055D01*
X3031743Y-4502657D01*
X3050286Y-4493513D01*
X3077972Y-4493513D01*
X3096513Y-4512055D01*
X3105658Y-4539742D01*
X3105658Y-4576571D01*
X3096513Y-4604257D01*
X3077972Y-4622800D01*
X2911856Y-4367784D02*
G01*
X3105658Y-4367784D01*
X2911856Y-4432554D02*
G01*
X2911856Y-4303268D01*
X2911856Y-4242307D02*
G01*
X3105658Y-4242307D01*
X2911856Y-4242307D02*
G01*
X3105658Y-4168394D01*
X2911856Y-4094479D02*
G01*
X3105658Y-4168394D01*
X2911856Y-4094479D02*
G01*
X3105658Y-4094479D01*
X2911856Y-4014978D02*
G01*
X2911856Y-3913378D01*
X2985770Y-3968750D01*
X2985770Y-3941063D01*
X2994913Y-3922776D01*
X3004058Y-3913378D01*
X3031743Y-3904234D01*
X3050286Y-3904234D01*
X3077972Y-3913378D01*
X3096513Y-3931920D01*
X3105658Y-3959605D01*
X3105658Y-3987292D01*
X3096513Y-4014978D01*
X3087370Y-4024376D01*
X3068827Y-4033520D01*
X2957829Y-3834129D02*
G01*
X2948686Y-3834129D01*
X2930143Y-3824731D01*
X2921000Y-3815587D01*
X2911856Y-3797045D01*
X2911856Y-3760215D01*
X2921000Y-3741673D01*
X2930143Y-3732529D01*
X2948686Y-3723131D01*
X2967227Y-3723131D01*
X2985770Y-3732529D01*
X3013456Y-3750818D01*
X3105658Y-3843273D01*
X3105658Y-3713987D01*
X2911856Y-3653028D02*
G01*
X3105658Y-3653028D01*
X2911856Y-3653028D02*
G01*
X2911856Y-3532886D01*
X3004058Y-3653028D02*
G01*
X3004058Y-3579113D01*
X2948686Y-3471926D02*
G01*
X2939541Y-3453384D01*
X2911856Y-3425697D01*
X3105658Y-3425697D01*
X2911856Y-3309365D02*
G01*
X2921000Y-3337052D01*
X2948686Y-3355594D01*
X2994913Y-3364737D01*
X3022600Y-3364737D01*
X3068827Y-3355594D01*
X3096513Y-3337052D01*
X3105658Y-3309365D01*
X3105658Y-3290823D01*
X3096513Y-3263137D01*
X3068827Y-3244850D01*
X3022600Y-3235452D01*
X2994913Y-3235452D01*
X2948686Y-3244850D01*
X2921000Y-3263137D01*
X2911856Y-3290823D01*
X2911856Y-3309365D01*
X2911856Y-3155950D02*
G01*
X2911856Y-3054350D01*
X2985770Y-3109976D01*
X2985770Y-3082289D01*
X2994913Y-3063747D01*
X3004058Y-3054350D01*
X3031743Y-3045205D01*
X3050286Y-3045205D01*
X3077972Y-3054350D01*
X3096513Y-3072892D01*
X3105658Y-3100578D01*
X3105658Y-3128263D01*
X3096513Y-3155950D01*
X3087370Y-3165347D01*
X3068827Y-3174492D01*
X2957829Y-2845815D02*
G01*
X2939541Y-2854960D01*
X2921000Y-2873502D01*
X2911856Y-2891789D01*
X2911856Y-2928873D01*
X2921000Y-2947415D01*
X2939541Y-2965704D01*
X2957829Y-2975102D01*
X2985770Y-2984245D01*
X3031743Y-2984245D01*
X3059429Y-2975102D01*
X3077972Y-2965704D01*
X3096513Y-2947415D01*
X3105658Y-2928873D01*
X3105658Y-2891789D01*
X3096513Y-2873502D01*
X3077972Y-2854960D01*
X3059429Y-2845815D01*
X2911856Y-2738628D02*
G01*
X2921000Y-2766313D01*
X2939541Y-2775457D01*
X2957829Y-2775457D01*
X2976372Y-2766313D01*
X2985770Y-2747771D01*
X2994913Y-2710942D01*
X3004058Y-2683255D01*
X3022600Y-2664713D01*
X3041141Y-2655570D01*
X3068827Y-2655570D01*
X3087370Y-2664713D01*
X3096513Y-2673857D01*
X3105658Y-2701544D01*
X3105658Y-2738628D01*
X3096513Y-2766313D01*
X3087370Y-2775457D01*
X3068827Y-2784855D01*
X3041141Y-2784855D01*
X3022600Y-2775457D01*
X3004058Y-2757170D01*
X2994913Y-2729229D01*
X2985770Y-2692400D01*
X2976372Y-2673857D01*
X2957829Y-2664713D01*
X2939541Y-2664713D01*
X2921000Y-2673857D01*
X2911856Y-2701544D01*
X2911856Y-2738628D01*
X2911856Y-2529839D02*
G01*
X3105658Y-2529839D01*
X2911856Y-2594610D02*
G01*
X2911856Y-2465070D01*
X2939541Y-2293365D02*
G01*
X2921000Y-2302510D01*
X2911856Y-2330450D01*
X2911856Y-2348737D01*
X2921000Y-2376423D01*
X2948686Y-2394965D01*
X2994913Y-2404110D01*
X3041141Y-2404110D01*
X3077972Y-2394965D01*
X3096513Y-2376423D01*
X3105658Y-2348737D01*
X3105658Y-2339594D01*
X3096513Y-2311907D01*
X3077972Y-2293365D01*
X3050286Y-2284221D01*
X3041141Y-2284221D01*
X3013456Y-2293365D01*
X2994913Y-2311907D01*
X2985770Y-2339594D01*
X2985770Y-2348737D01*
X2994913Y-2376423D01*
X3013456Y-2394965D01*
X3041141Y-2404110D01*
X2748279Y-5920739D02*
G01*
X2748279Y-6059170D01*
X2757424Y-6086855D01*
X2775965Y-6105397D01*
X2803652Y-6114542D01*
X2822193Y-6114542D01*
X2849879Y-6105397D01*
X2868422Y-6086855D01*
X2877565Y-6059170D01*
X2877565Y-5920739D01*
X3067811Y-5948426D02*
G01*
X3049270Y-5929884D01*
X3021584Y-5920739D01*
X2984754Y-5920739D01*
X2957068Y-5929884D01*
X2938525Y-5948426D01*
X2938525Y-5966713D01*
X2947670Y-5985255D01*
X2957068Y-5994654D01*
X2975609Y-6003797D01*
X3030981Y-6022339D01*
X3049270Y-6031484D01*
X3058668Y-6040628D01*
X3067811Y-6059170D01*
X3067811Y-6086855D01*
X3049270Y-6105397D01*
X3021584Y-6114542D01*
X2984754Y-6114542D01*
X2957068Y-6105397D01*
X2938525Y-6086855D01*
X3128772Y-5920739D02*
G01*
X3128772Y-6114542D01*
X3128772Y-5920739D02*
G01*
X3211829Y-5920739D01*
X3239770Y-5929884D01*
X3248913Y-5939028D01*
X3258058Y-5957570D01*
X3258058Y-5976112D01*
X3248913Y-5994654D01*
X3239770Y-6003797D01*
X3211829Y-6012942D01*
X3128772Y-6012942D02*
G01*
X3211829Y-6012942D01*
X3239770Y-6022339D01*
X3248913Y-6031484D01*
X3258058Y-6050026D01*
X3258058Y-6077712D01*
X3248913Y-6096254D01*
X3239770Y-6105397D01*
X3211829Y-6114542D01*
X3128772Y-6114542D01*
D10*
X1041400Y-8533384D02*
G01*
X1041400Y-8611362D01*
X1046479Y-8626855D01*
X1056894Y-8637270D01*
X1072642Y-8642350D01*
X1083055Y-8642350D01*
X1098550Y-8637270D01*
X1108963Y-8626855D01*
X1114044Y-8611362D01*
X1114044Y-8533384D01*
X1153668Y-8559292D02*
G01*
X1153668Y-8554212D01*
X1158747Y-8543797D01*
X1164081Y-8538463D01*
X1174495Y-8533384D01*
X1195070Y-8533384D01*
X1205484Y-8538463D01*
X1210818Y-8543797D01*
X1215897Y-8554212D01*
X1215897Y-8564626D01*
X1210818Y-8575039D01*
X1200404Y-8590534D01*
X1148334Y-8642350D01*
X1221231Y-8642350D01*
X4266184Y-3925900D02*
G01*
X4344161Y-3925900D01*
X4359656Y-3920820D01*
X4370070Y-3910406D01*
X4375150Y-3894658D01*
X4375150Y-3884244D01*
X4370070Y-3868750D01*
X4359656Y-3858336D01*
X4344161Y-3853256D01*
X4266184Y-3853256D01*
X4266184Y-3808552D02*
G01*
X4266184Y-3751402D01*
X4307840Y-3782390D01*
X4307840Y-3766896D01*
X4312920Y-3756482D01*
X4318000Y-3751402D01*
X4333747Y-3746068D01*
X4344161Y-3746068D01*
X4359656Y-3751402D01*
X4370070Y-3761816D01*
X4375150Y-3777310D01*
X4375150Y-3792804D01*
X4370070Y-3808552D01*
X4364990Y-3813632D01*
X4354575Y-3818966D01*
X4253484Y-4649800D02*
G01*
X4331461Y-4649800D01*
X4346956Y-4644720D01*
X4357370Y-4634306D01*
X4362450Y-4618558D01*
X4362450Y-4608144D01*
X4357370Y-4592650D01*
X4346956Y-4582236D01*
X4331461Y-4577156D01*
X4253484Y-4577156D01*
X4253484Y-4490796D02*
G01*
X4326127Y-4542866D01*
X4326127Y-4464888D01*
X4253484Y-4490796D02*
G01*
X4362450Y-4490796D01*
X5017515Y-3175000D02*
G01*
X4939538Y-3175000D01*
X4924043Y-3180079D01*
X4913629Y-3190494D01*
X4908550Y-3206242D01*
X4908550Y-3216655D01*
X4913629Y-3232150D01*
X4924043Y-3242563D01*
X4939538Y-3247644D01*
X5017515Y-3247644D01*
X5017515Y-3344418D02*
G01*
X5017515Y-3292347D01*
X4970779Y-3287268D01*
X4975859Y-3292347D01*
X4981193Y-3308095D01*
X4981193Y-3323589D01*
X4975859Y-3339084D01*
X4965700Y-3349497D01*
X4949952Y-3354831D01*
X4939538Y-3354831D01*
X4924043Y-3349497D01*
X4913629Y-3339084D01*
X4908550Y-3323589D01*
X4908550Y-3308095D01*
X4913629Y-3292347D01*
X4918709Y-3287268D01*
X4929124Y-3281934D01*
X4367784Y-2489200D02*
G01*
X4445761Y-2489200D01*
X4461256Y-2484120D01*
X4471670Y-2473705D01*
X4476750Y-2457957D01*
X4476750Y-2447544D01*
X4471670Y-2432050D01*
X4461256Y-2421636D01*
X4445761Y-2416555D01*
X4367784Y-2416555D01*
X4383277Y-2319781D02*
G01*
X4372863Y-2325115D01*
X4367784Y-2340610D01*
X4367784Y-2351023D01*
X4372863Y-2366518D01*
X4388611Y-2376931D01*
X4414520Y-2382265D01*
X4440427Y-2382265D01*
X4461256Y-2376931D01*
X4471670Y-2366518D01*
X4476750Y-2351023D01*
X4476750Y-2345689D01*
X4471670Y-2330195D01*
X4461256Y-2319781D01*
X4445761Y-2314702D01*
X4440427Y-2314702D01*
X4424934Y-2319781D01*
X4414520Y-2330195D01*
X4409440Y-2345689D01*
X4409440Y-2351023D01*
X4414520Y-2366518D01*
X4424934Y-2376931D01*
X4440427Y-2382265D01*
G36*
X8105038Y-765098D02*
G01*
X8105038Y-1665071D01*
X8174990Y-1665071D01*
X8174990Y-765098D01*
G37*
D13*
X4295013Y-454101D02*
G01*
X8095005Y-454101D01*
X8095005Y-1654098D01*
X4295013Y-1654098D01*
X4295013Y-454101D01*
X4795011Y-504113D02*
G01*
X7795006Y-504113D01*
X7795006Y-1654124D01*
X4795011Y-1654124D01*
X4795011Y-504113D01*
X1270000Y-457200D02*
G01*
X635000Y-457200D01*
X1270000Y-711200D02*
G01*
X635000Y-711200D01*
X1270000Y-965200D02*
G01*
X635000Y-965200D01*
X1270000Y-1092200D02*
G01*
X1270000Y-330200D01*
X1524000Y-330200D01*
X1524000Y-1092200D01*
X1270000Y-1092200D01*
X1257300Y-1358900D02*
G01*
X622300Y-1358900D01*
X1257300Y-1612900D02*
G01*
X622300Y-1612900D01*
X1257300Y-1866900D02*
G01*
X622300Y-1866900D01*
X1257300Y-1993900D02*
G01*
X1257300Y-1231900D01*
X1511300Y-1231900D01*
X1511300Y-1993900D01*
X1257300Y-1993900D01*
D14*
X4953000Y-8407400D02*
G01*
X4953000Y-6629400D01*
X889000Y-6629400D01*
X889000Y-8407400D01*
X4953000Y-8407400D01*
D13*
X1651000Y-6159505D02*
G01*
X1651000Y-6235705D01*
X1651000Y-5499105D02*
G01*
X1651000Y-5422905D01*
X1536700Y-6146812D02*
G01*
X1536700Y-5499112D01*
X1765300Y-5499112D01*
X1765300Y-6146812D01*
X1536700Y-6146812D01*
X4155440Y-6248400D02*
G01*
X1869439Y-6243320D01*
X4155440Y-6248400D02*
G01*
X4155440Y-914400D01*
X1869439Y-6243320D02*
G01*
X1869439Y-914400D01*
X4155440Y-914400D02*
G01*
X1869439Y-914400D01*
X3352800Y-6240779D02*
G01*
X3352800Y-5791200D01*
X2656840Y-5791200D01*
X2656840Y-6233160D01*
X2654300Y-6235700D01*
X2082797Y-8674100D02*
G01*
X2082797Y-8928100D01*
X50802Y-8928100D01*
X50802Y-8674100D01*
X2082797Y-8674100D01*
X307152Y-8674100D02*
G01*
X307152Y-8928100D01*
X4406900Y-3924300D02*
G01*
X4406900Y-4229100D01*
X5168900Y-4229100D01*
X5168900Y-3619500D01*
X4406900Y-3619500D01*
X4406900Y-3924300D01*
X4889500Y-4000500D02*
G01*
X4889500Y-3848100D01*
X5168900Y-3848100D01*
X5168900Y-4000500D01*
X4889500Y-4000500D01*
X4559300Y-3797300D02*
G01*
X4559300Y-3670300D01*
X4813300Y-3670300D01*
X4813300Y-3797300D01*
X4559300Y-3797300D01*
X4559300Y-4178300D02*
G01*
X4559300Y-4076700D01*
X4813300Y-4076700D01*
X4813300Y-4178300D01*
X4559300Y-4178300D01*
X4394200Y-4648200D02*
G01*
X4394200Y-4953000D01*
X5156200Y-4953000D01*
X5156200Y-4343400D01*
X4394200Y-4343400D01*
X4394200Y-4648200D01*
X4876800Y-4724400D02*
G01*
X4876800Y-4572000D01*
X5156200Y-4572000D01*
X5156200Y-4724400D01*
X4876800Y-4724400D01*
X4546600Y-4521200D02*
G01*
X4546600Y-4394200D01*
X4800600Y-4394200D01*
X4800600Y-4521200D01*
X4546600Y-4521200D01*
X4546600Y-4902200D02*
G01*
X4546600Y-4800600D01*
X4800600Y-4800600D01*
X4800600Y-4902200D01*
X4546600Y-4902200D01*
X4864100Y-2895600D02*
G01*
X4864100Y-3479800D01*
X4521200Y-3479800D01*
X4521200Y-2895600D01*
X4864100Y-2895600D01*
X4521200Y-2768600D02*
G01*
X4521200Y-2184400D01*
X4864100Y-2184400D01*
X4864100Y-2768600D01*
X4521200Y-2768600D01*
M02*
