G04 Layer: TopLayer*
G04 EasyEDA v6.5.23, 2023-05-10 17:44:45*
G04 879318d257fd408eaa7c897814ac9686,36dc43ecd37a4a90800178a54734e8d5,10*
G04 Gerber Generator version 0.2*
G04 Scale: 100 percent, Rotated: No, Reflected: No *
G04 Dimensions in millimeters *
G04 leading zeros omitted , absolute positions ,4 integer and 5 decimal *
%FSLAX45Y45*%
%MOMM*%

%AMMACRO1*21,1,$1,$2,0,0,$3*%
%ADD10C,0.6000*%
%ADD11R,1.7000X1.7000*%
%ADD12C,1.7000*%
%ADD13C,1.8000*%
%ADD14R,1.8000X1.8000*%
%ADD15C,1.8796*%
%ADD16MACRO1,1.8796X1.8796X90.0000*%
%ADD17C,1.6000*%
%ADD18C,2.0320*%
%ADD19R,1.5000X1.5000*%
%ADD20C,1.5000*%
%ADD21R,1.6000X1.6000*%
%ADD22C,2.0000*%

%LPD*%
D10*
X3769359Y-2702560D02*
G01*
X3799052Y-2702560D01*
X4746726Y-1754886D01*
X4746726Y-714527D01*
X4518990Y-486790D01*
X4375531Y-486790D01*
X4267885Y-594436D01*
X4267885Y-749985D01*
X4445000Y-927100D01*
X4699000Y-3060700D02*
G01*
X4890058Y-3060700D01*
X4608525Y-4073525D02*
G01*
X4890058Y-3791991D01*
X4890058Y-3060700D01*
X4546600Y-4748199D02*
G01*
X4653000Y-4748199D01*
X4716805Y-4684395D01*
X4716805Y-4181805D01*
X4608525Y-4073525D01*
X4608525Y-4073525D02*
G01*
X4559300Y-4024299D01*
X3810000Y-6572402D02*
G01*
X4546600Y-5835802D01*
X4546600Y-4748199D01*
X4445000Y-1435100D02*
G01*
X4269993Y-1435100D01*
X4269993Y-1435100D02*
G01*
X4267454Y-1432560D01*
X3769359Y-1432560D01*
X3810000Y-6717182D02*
G01*
X3810000Y-6572402D01*
X3810000Y-6717182D02*
G01*
X3810000Y-6756400D01*
X3810000Y-6756400D02*
G01*
X3810000Y-6940397D01*
X177800Y-8801100D02*
G01*
X177800Y-8636076D01*
X177800Y-8636076D02*
G01*
X1731721Y-7082154D01*
X3668242Y-7082154D01*
X3810000Y-6940397D01*
X1651000Y-457200D02*
G01*
X1631594Y-457200D01*
X1461465Y-627329D01*
X1461465Y-1182065D01*
X1638300Y-1358900D01*
X4890058Y-3060700D02*
G01*
X4890058Y-2533573D01*
X4705984Y-2349500D01*
X4705984Y-2349500D02*
G01*
X4686300Y-2349500D01*
X4705984Y-2349500D02*
G01*
X4866919Y-2188565D01*
X4866919Y-650976D01*
X4573066Y-357123D01*
X4314672Y-357123D01*
X3492245Y-1179550D01*
X1651000Y-457200D02*
G01*
X2769870Y-457200D01*
X3492245Y-1179550D01*
X3492245Y-1179550D02*
G01*
X3745229Y-1432560D01*
X3769359Y-1432560D01*
X4686300Y-2603500D02*
G01*
X4136542Y-3153257D01*
X4136542Y-3624478D01*
X3788460Y-3972560D01*
X3769359Y-3972560D01*
X4699000Y-3314700D02*
G01*
X3787140Y-4226560D01*
X3769359Y-4226560D01*
X4389272Y-3824300D02*
G01*
X4025671Y-4187901D01*
X4025671Y-4502530D01*
X3793642Y-4734560D01*
X3769359Y-4734560D01*
X4559300Y-3824300D02*
G01*
X4389272Y-3824300D01*
X4376572Y-4548200D02*
G01*
X3936212Y-4988560D01*
X3769359Y-4988560D01*
X4546600Y-4548200D02*
G01*
X4376572Y-4548200D01*
X2032000Y-6459143D02*
G01*
X2032000Y-6756400D01*
X2245359Y-4226560D02*
G01*
X2269363Y-4226560D01*
X2450261Y-4407458D01*
X2450261Y-6081699D01*
X2072817Y-6459143D01*
X2032000Y-6459143D01*
X2032000Y-6459143D02*
G01*
X1755851Y-6459143D01*
X1651000Y-6354292D01*
X431800Y-8801100D02*
G01*
X952500Y-8280400D01*
X1016000Y-8280400D01*
X685800Y-8801100D02*
G01*
X971194Y-8515705D01*
X1059078Y-8515705D01*
X1270000Y-8304784D01*
X1270000Y-8280400D01*
X939800Y-8801100D02*
G01*
X1105001Y-8635898D01*
X1182014Y-8635898D01*
X1524000Y-8293912D01*
X1524000Y-8280400D01*
X1193800Y-8801100D02*
G01*
X1479194Y-8515705D01*
X1567078Y-8515705D01*
X1778000Y-8304784D01*
X1778000Y-8280400D01*
X1447800Y-8801100D02*
G01*
X1613001Y-8635898D01*
X1689988Y-8635898D01*
X2032000Y-8293887D01*
X2032000Y-8280400D01*
X1701800Y-8801100D02*
G01*
X2038299Y-8464600D01*
X2130399Y-8464600D01*
X2286000Y-8309000D01*
X2286000Y-8280400D01*
X1955800Y-8801100D02*
G01*
X2049652Y-8801100D01*
X2540000Y-8310753D01*
X2540000Y-8280400D01*
X1638300Y-1866900D02*
G01*
X1818309Y-1866900D01*
X1651000Y-965200D02*
G01*
X1651000Y-1145209D01*
X1818309Y-1866900D02*
G01*
X1829536Y-1855673D01*
X1829536Y-1279093D01*
X1695653Y-1145209D01*
X1651000Y-1145209D01*
X3769359Y-1686560D02*
G01*
X3152317Y-1686560D01*
X2430957Y-965200D01*
X1651000Y-965200D01*
X1843278Y-5496560D02*
G01*
X1478127Y-5861710D01*
X1478127Y-6470878D01*
X1951761Y-6944512D01*
X3401822Y-6944512D01*
X3556000Y-6790334D01*
X3556000Y-6756400D01*
X2245359Y-5496560D02*
G01*
X1843278Y-5496560D01*
X4445000Y-1181100D02*
G01*
X4442459Y-1178560D01*
X3769359Y-1178560D01*
X1843278Y-5496560D02*
G01*
X1651000Y-5304281D01*
X3769359Y-6004560D02*
G01*
X3302000Y-6471920D01*
X3302000Y-6756400D01*
X3769359Y-5750560D02*
G01*
X3741851Y-5750560D01*
X3048000Y-6444411D01*
X3048000Y-6756400D01*
X3769359Y-5496560D02*
G01*
X3743350Y-5496560D01*
X2794000Y-6445910D01*
X2794000Y-6756400D01*
X2540000Y-6756400D02*
G01*
X2540000Y-6451930D01*
X3749370Y-5242560D01*
X3769359Y-5242560D01*
X2286000Y-6756400D02*
G01*
X2286000Y-6535953D01*
X3037484Y-5784469D01*
X3037484Y-4175480D01*
X3748404Y-3464560D01*
X3769359Y-3464560D01*
X3769359Y-2448560D02*
G01*
X3797376Y-2448560D01*
X4626533Y-1619402D01*
X4626533Y-854633D01*
X4445000Y-673100D01*
D11*
G01*
X4445000Y-1435100D03*
D12*
G01*
X4445000Y-1181100D03*
G01*
X4445000Y-927100D03*
G01*
X4445000Y-673100D03*
D13*
G01*
X1651000Y-457200D03*
G01*
X1651000Y-711200D03*
D14*
G01*
X1651000Y-965200D03*
D13*
G01*
X1638300Y-1358900D03*
G01*
X1638300Y-1612900D03*
D14*
G01*
X1638300Y-1866900D03*
D15*
G01*
X4826000Y-8280400D03*
G01*
X4572000Y-8280400D03*
G01*
X4318000Y-8280400D03*
G01*
X4064000Y-8280400D03*
G01*
X3810000Y-8280400D03*
G01*
X3556000Y-8280400D03*
G01*
X3302000Y-8280400D03*
G01*
X3048000Y-8280400D03*
G01*
X2794000Y-8280400D03*
G01*
X2540000Y-8280400D03*
G01*
X2286000Y-8280400D03*
G01*
X2032000Y-8280400D03*
G01*
X1778000Y-8280400D03*
G01*
X1524000Y-8280400D03*
G01*
X1270000Y-8280400D03*
G01*
X1016000Y-8280400D03*
D16*
G01*
X3810000Y-6756400D03*
D15*
G01*
X3556000Y-6756400D03*
G01*
X3302000Y-6756400D03*
G01*
X3048000Y-6756400D03*
G01*
X2794000Y-6756400D03*
G01*
X2540000Y-6756400D03*
G01*
X2286000Y-6756400D03*
G01*
X2032000Y-6756400D03*
D17*
G01*
X1651000Y-6354305D03*
G01*
X1651000Y-5304294D03*
D18*
G01*
X3769359Y-6004560D03*
G01*
X3769359Y-5750560D03*
G01*
X3769359Y-5496560D03*
G01*
X3769359Y-5242560D03*
G01*
X3769359Y-4988560D03*
G01*
X3769359Y-4734560D03*
G01*
X3769359Y-4480560D03*
G01*
X3769359Y-4226560D03*
G01*
X3769359Y-3972560D03*
G01*
X3769359Y-3718560D03*
G01*
X3769359Y-3464560D03*
G01*
X3769359Y-3210560D03*
G01*
X3769359Y-2956560D03*
G01*
X3769359Y-2702560D03*
G01*
X3769359Y-2448560D03*
G01*
X3769359Y-2194560D03*
G01*
X3769359Y-1940560D03*
G01*
X3769359Y-1686560D03*
G01*
X3769359Y-1432560D03*
G01*
X3769359Y-1178560D03*
G01*
X2245359Y-6004560D03*
G01*
X2245359Y-5750560D03*
G01*
X2245359Y-5496560D03*
G01*
X2245359Y-5242560D03*
G01*
X2245359Y-4988560D03*
G01*
X2245359Y-4734560D03*
G01*
X2245359Y-4480560D03*
G01*
X2245359Y-4226560D03*
G01*
X2245359Y-3972560D03*
G01*
X2245359Y-3718560D03*
G01*
X2245359Y-3464560D03*
G01*
X2245359Y-3210560D03*
G01*
X2245359Y-2956560D03*
G01*
X2245359Y-2702560D03*
G01*
X2245359Y-2448560D03*
G01*
X2245359Y-2194560D03*
G01*
X2245359Y-1940560D03*
G01*
X2245359Y-1686560D03*
G01*
X2245359Y-1432560D03*
G01*
X2245359Y-1178560D03*
D19*
G01*
X177800Y-8801100D03*
D20*
G01*
X431800Y-8801100D03*
G01*
X685800Y-8801100D03*
G01*
X939800Y-8801100D03*
G01*
X1193800Y-8801100D03*
G01*
X1447800Y-8801100D03*
G01*
X1701800Y-8801100D03*
G01*
X1955800Y-8801100D03*
D21*
G01*
X4559300Y-3824300D03*
D17*
G01*
X4559300Y-4024299D03*
D21*
G01*
X4546600Y-4548200D03*
D17*
G01*
X4546600Y-4748199D03*
D22*
G01*
X4699000Y-3060700D03*
G01*
X4699000Y-3314700D03*
G01*
X4686300Y-2603500D03*
G01*
X4686300Y-2349500D03*
M02*
